<svg xmlns="http://www.w3.org/2000/svg" viewBox="1.11 -0.22 156.2 91.81">
    <path
        d="M53.073 10.005c-8.466 0-10.973.094-11.814.445-.588.246-1.303.782-1.59 1.192-.3.429-.522 1.375-.522 2.23 0 1.002.208 1.751.64 2.301.354.448 1.606 1.424 2.784 2.168s2.507 1.471 2.957 1.617 1.538.202 2.418.123 5.057-1.01 9.281-2.068c6.523-1.634 7.787-2.048 8.399-2.744a3 3 0 0 0 .72-1.944c0-.617-.148-1.4-.33-1.738-.18-.339-.75-.834-1.263-1.1-.78-.403-2.721-.482-11.68-.482M110.702-.165c-7.698-.08-10.775-.008-11.455.274-.512.211-1.139.79-1.395 1.285-.255.494-.465 1.268-.465 1.72s.875 2.799 1.946 5.215 1.986 4.434 2.035 4.483 1.26-.44 2.693-1.086c1.706-.77 2.603-1.351 2.598-1.688-.004-.283-.29-1.14-.639-1.908-.348-.767-.633-1.525-.633-1.682s3.3-.284 7.44-.283c6.815.001 7.526.055 8.465.627.563.344 1.268 1.098 1.568 1.678s.537 1.651.526 2.38c-.011.73-.27 1.706-.573 2.169s-.958 1.133-1.457 1.488c-.498.355-1.635.73-2.527.836-1.268.15-1.795.397-2.412 1.13-.48.571-.791 1.341-.791 1.964 0 .563.233 1.356.515 1.76s.822.866 1.2 1.029c.377.163 1.502.228 2.5.144.997-.083 2.58-.494 3.52-.914.938-.42 2.325-1.394 3.081-2.166.756-.771 1.726-2.123 2.156-3.004s.874-2.477.985-3.545c.144-1.385.049-2.473-.336-3.797-.297-1.02-.878-2.39-1.291-3.044s-1.393-1.753-2.178-2.442S123.65.922 122.79.575c-1.42-.572-2.518-.64-12.088-.74M71.682 53.546c.374 0 .805.02 1.338.055 1.799.114 2.886.381 4.108 1.008.914.468 2.166 1.44 2.783 2.16.616.72 1.345 1.966 1.619 2.77.274.802.496 2.43.496 3.618 0 1.846-.163 2.474-1.119 4.309-1.12 2.147-1.12 2.146.088 4.902s1.207 2.755 3.119 2.94c1.051.101 2.137.286 2.41.41s.755.664 1.07 1.2c.404.682.514 1.295.372 2.056-.115.61-.565 1.368-1.034 1.736-.77.606-1.272.654-6.892.654-6.062 0-6.062 0-7.037-.976-.864-.864-.957-1.128-.797-2.317.114-.85.444-1.554.9-1.923.396-.321 1.126-.665 1.621-.764.464-.093.85-.225.897-.3l.002-.01v-.003c0-.073-.291-.703-.647-1.4-.62-1.214-.711-1.268-2.203-1.268-.856 0-2.3-.24-3.209-.533s-2.285-1.09-3.058-1.771c-.774-.681-1.811-2.061-2.305-3.067-.724-1.475-.897-2.261-.897-4.068 0-1.802.174-2.594.89-4.05.488-.997 1.352-2.276 1.919-2.843.567-.566 1.801-1.387 2.744-1.826 1.12-.522 1.703-.7 2.822-.7"
        style="fill:#0078bd"></path>

    <circle cx="29.876" cy="61.843" r="23.65" fill="none" stroke="#0078bd" stroke-width="5.416" />

    <circle cx="128.533" cy="62.204" r="23.65" fill="none" stroke="#0078bd" stroke-width="5.416" />

    <path
        d="M43.307 65.044c-10.696-.12-14.418-.261-14.953-.567-.392-.224-.86-.683-1.04-1.02-.18-.335-.327-1.119-.327-1.74 0-.942.462-1.7 2.793-4.58 1.537-1.9 4.77-5.89 7.185-8.868s4.318-5.534 4.228-5.68-.048-.265.095-.266c.142 0 .979-.892 1.859-1.981s1.901-2.276 2.27-2.639c.368-.362 2.226-2.603 4.128-4.979a1208 1208 0 0 0 3.727-4.67c.16-.207-.419-1.963-1.43-4.335-1.7-3.986-1.7-3.986.722-4.535 1.333-.302 2.71-.623 3.063-.713.525-.134.767.14 1.35 1.525l1.336 3.177c.624 1.49.624 1.49 9.689-.39 4.986-1.032 14.75-3.044 21.7-4.47s12.682-2.64 12.739-2.696-.121-.64-.396-1.297c-.274-.657-.498-1.252-.498-1.323s1.11-.635 2.47-1.254c1.357-.62 2.555-1.266 2.662-1.438s1.68 3.038 3.5 7.133c1.818 4.095 4.302 9.75 5.521 12.566s2.4 5.336 2.627 5.6 1.095 2.208 1.933 4.32c.837 2.112 2.168 5.28 2.958 7.04s2.01 4.184 2.712 5.386c.7 1.202 2.162 3.19 3.246 4.417 1.084 1.228 2.295 2.678 2.69 3.222.397.545.72 1.336.72 1.758 0 .423-.217 1.19-.483 1.705-.31.6-.856 1.032-1.52 1.204-.57.148-1.357.208-1.748.133s-1.762-1.236-3.046-2.58c-1.285-1.345-3.2-3.74-4.257-5.325-1.058-1.584-2.77-4.824-3.805-7.2s-2.04-4.464-2.231-4.64c-.192-.178-.377-.466-.41-.64-.034-.176-1.061-2.696-2.283-5.6-1.223-2.904-2.597-6.108-3.055-7.12s-.89-1.84-.958-1.84c-.069 0-5.147 5.363-11.284 11.917s-12.24 13.089-13.56 14.522c-2.346 2.549-2.41 2.592-2.88 1.927-.263-.374-.966-1.223-1.56-1.887s-1.411-1.29-1.814-1.391c-.65-.163.812-1.843 12.887-14.796 7.491-8.036 14.052-15.072 14.58-15.634.893-.952.931-1.091.555-2-.23-.555-.643-.978-.956-.978-.303 0-2.626.427-5.161.949-2.536.521-10.874 2.255-18.53 3.852a4631 4631 0 0 1-16.48 3.418c-1.408.282-2.672.611-2.808.731-.137.12.098 1 .52 1.954.423.955 2.606 6.025 4.851 11.266 2.246 5.242 4.028 9.572 3.96 9.624-.068.05-.813.348-1.656.66s-1.972.938-2.509 1.39c-.795.67-1.027.738-1.254.37-.154-.248-2.247-5.06-4.653-10.692s-4.482-10.362-4.614-10.508c-.133-.146-1.519 1.34-3.08 3.301-1.56 1.962-3.767 4.746-4.904 6.186-1.136 1.44-2.236 2.763-2.443 2.94-.208.175-2.217 2.623-4.465 5.44-2.247 2.815-4.302 5.371-4.565 5.68-.455.53.055.56 10.108.56 10.587 0 10.587 0 10.726-.72.138-.72.138-.72.182 0 .042.693.156.72 3.118.72 2.71 0 3.05.061 2.874.52-.11.287-.36 1.156-.555 1.931s-.28 1.971-.187 2.657c.167 1.248.167 1.248-2.76 1.35-1.61.055-9.334.03-17.166-.059"
        style="fill:currentColor"></path>
</svg>
