<svg xmlns="http://www.w3.org/2000/svg" xmlns:svg="http://www.w3.org/2000/svg"
   viewBox="-0.02 0 599.78 372.25">
   <path style="fill:currentColor"
      d="M 103.42927,370.76216 C 85.41177,367.50507 65.397763,358.48127 51.70701,347.44194 43.399706,340.74347 33.043357,329.35666 27.064642,320.34765 9.3210354,293.61073 4.7507314,256.9121 15.262992,225.58271 c 7.511305,-22.38572 21.035906,-40.98945 40.444018,-55.63266 24.21189,-18.26761 58.68017,-25.65247 89.00001,-19.06834 10.05822,2.1842 25.91657,8.58174 34.5,13.91791 3.85,2.39347 7.3375,4.14437 7.75,3.89088 2.03206,-1.24873 0.0682,-3.36429 -7,-7.5407 -12.63515,-7.46577 -22.03781,-11.17139 -36.75,-14.48328 -8.74189,-1.96791 -35.38402,-2.2079 -44.000001,-0.39636 -14.322129,3.01129 -30.756806,9.94147 -43.03558,18.14725 -11.298602,7.55074 -27.382807,24.84447 -34.349848,36.93295 -3.279058,5.68948 -9.114581,18.00323 -9.114581,19.23301 0,0.73691 -1.265244,2.85539 -2.8116516,4.70773 -2.269058,2.71797 -3.295055,3.24658 -5.316579,2.73921 -1.3777096,-0.34578 -3.1041428,-1.74834 -3.83651683,-3.11679 -1.15993,-2.16735 -1.040232,-3.29882 0.92851603,-8.77698 C 7.8464844,198.95225 23.11327,176.6463 37.093979,164.3805 c 6.596383,-5.78726 19.099978,-14.09431 26.840344,-17.83201 16.625147,-8.02801 25.075937,-10.47803 44.236597,-12.82488 28.93386,-3.5439 55.57478,3.16133 84.87317,21.36164 l 2.83707,1.7624 6.00547,-6.5 c 3.30301,-3.575 7.20133,-8.075 8.66293,-10 1.4616,-1.925 3.89288,-4.85 5.40283,-6.5 1.50996,-1.65 2.74746,-3.7607 2.75,-4.69045 0.006,-2.24916 -7.95508,-25.95676 -9.26541,-27.59128 -0.56514,-0.70495 -2.64807,-1.19632 -4.62874,-1.09193 -3.93491,0.20738 -9.32595,-0.709036 -12.85122,-2.184576 -1.2375,-0.51797 -3.2625,-1.32786 -4.5,-1.79977 -2.04626,-0.78031 -6.67325,-3.04688 -13.97536,-6.84597 -9.55415,-4.970749 -8.83976,-18.477569 1.24529,-23.544469 4.34705,-2.18403 9.03075,-2.18393 20.48007,4.3e-4 6.93741,1.32356 14.54044,1.72062 33.17539,1.73254 22.93277,0.0147 24.32058,0.12279 27,2.1033 3.9333,2.90731 6.6961,8.84447 5.21746,11.21214 -1.08912,1.74396 -9.1031,4.20004 -13.70439,4.20004 -3.51328,0 -18.32659,6.047149 -21.08984,8.609379 -2.12893,1.97405 -2.32094,2.6304 -1.34477,4.59674 0.62632,1.26164 2.53709,6.568876 4.24615,11.793876 1.70906,5.225 3.51011,10.4 4.00234,11.5 0.49223,1.1 1.81443,4.925 2.93823,8.5 3.46381,11.01898 16.13261,49.38394 17.00623,51.5 0.45414,1.1 4.58939,13.57981 9.18945,27.73291 l 8.36375,25.73291 3.5,0.51697 c 1.925,0.28434 6.02173,1.10048 9.10385,1.81366 l 5.60385,1.29668 2.89615,-3.43318 c 5.04607,-5.98176 5.06143,-6.1746 0.79217,-9.94484 -14.48998,-12.79628 -15.39602,-13.86995 -15.39602,-18.24443 0,-2.66124 0.79174,-5.29933 2.19576,-7.31631 3.27629,-4.70663 15.15706,-19.35608 20.31058,-25.04373 1.62239,-1.79055 5.79612,-6.99108 8.49366,-10.58325 7.60358,-10.12525 28.03006,-33.69972 30.09258,-34.73024 4.35137,-2.17413 10.2955,-3.28591 17.5984,-3.29157 3.95504,-0.003 7.4691,-0.45558 7.80902,-1.00558 1.04377,-1.68886 4.04504,-1.11935 7.90486,1.5 2.02618,1.375 4.09481,2.5 4.59696,2.5 0.50214,0 3.49555,-3.2625 6.652,-7.25 3.15645,-3.9875 5.98812,-7.475 6.29259,-7.75 0.30448,-0.275 2.26207,-2.62634 4.35021,-5.2252 2.08815,-2.59885 4.53331,-5.46188 5.4337,-6.36227 1.5161,-1.5161 1.33112,-2.57096 -2.50322,-14.274795 -2.27716,-6.95076 -4.31937,-14.21273 -4.53823,-16.13773 -0.21887,-1.925 -2.03343,-8 -4.03236,-13.5 -1.99894,-5.5 -3.6394,-11.25985 -3.64547,-12.79966 -0.0157,-3.97808 2.1604,-7.68188 7.29288,-12.41284 5.8939,-5.43281 7.69608,-8.14348 7.69608,-11.57575 0,-4.13817 -1.70771,-6.69168 -5.54837,-8.29641 -4.87493,-2.03688 -8.79224,-1.75374 -14.20111,1.02645 -5.41372,2.78268 -29.10896,8.55821 -35.11176,8.55821 -4.80563,0 -8.13876,-3.46491 -8.13876,-8.46055 0,-5.5187999 2.95895,-7.1595199 19.9442,-11.0589999 12.48927,-2.86729005 17.63633,-3.55786005 27.93311,-3.74771005 12.18875,-0.22474 12.76432,-0.1406 16.74246,2.44759005 9.27122,6.03188 13.41562,14.7204099 11.24264,23.5696699 -1.42234,5.79237 -3.75977,9.43501 -9.63028,15.00777 -4.1674,3.95604 -4.44203,4.5281 -3.87532,8.07216 0.84026,5.25466 6.05803,17.6256 8.57237,20.32442 1.13895,1.22252 2.07082,2.81292 2.07082,3.53421 0,0.72129 0.66854,1.31144 1.48565,1.31144 1.09466,0 8.91967,-1.72988 11.19915,-2.4758 0.10164,-0.0333 -0.67276,-3.20231 -1.72088,-7.04234 -1.04813,-3.84002 -1.91879,-8.61477 -1.9348,-10.61054 -0.041,-5.1144 1.92754,-5.60904 24.97088,-6.27435 10.725,-0.30965 33.6184,-1.03323 50.87422,-1.60795 17.25581,-0.57472 32.21727,-0.77737 33.24767,-0.45034 2.6011,0.82556 3.32421,4.66601 2.02918,10.77693 -0.60428,2.85141 -3.54293,17.17279 -6.53034,31.82529 -2.98741,14.652495 -6.18047,27.783725 -7.09568,29.180515 -3.39875,5.18715 -5.99722,6.00811 -21.52505,6.80056 -7.975,0.407 -22.99688,0.77106 -33.38197,0.80901 -26.26271,0.096 -25.84095,0.40897 -31.574,-23.43099 -4.84788,-20.159085 -5.06441,-20.739145 -7.47681,-20.029915 -1.13697,0.33427 -3.55377,0.87802 -5.37067,1.20835 -2.52894,0.45979 -3.15091,0.97818 -2.65282,2.21108 0.35785,0.88577 1.3022,3.86049 2.09854,6.610489 0.79634,2.75 1.85495,5.9 2.35245,7 0.4975,1.1 1.57865,4.024996 2.40255,6.499996 0.8239,2.475 3.35001,9.675 5.61358,16 2.26356,6.325 4.85239,13.75 5.75294,16.5 1.74527,5.32953 3.03566,6.86644 4.70267,5.60109 3.80387,-2.88733 18.90138,-7.23589 33.53354,-9.65872 11.3597,-1.88097 26.87938,-1.84849 29.40297,0.0615 2.03993,1.54395 2.49727,6.99586 0.73472,8.75841 -0.54356,0.54356 -4.36524,0.92291 -8.49263,0.843 -12.35111,-0.23912 -26.47261,2.20086 -41.14506,7.10922 -9.77595,3.27034 -11.5,4.24849 -11.5,6.52455 0,1.69816 0.4113,1.61385 10.5,-2.15225 16.07522,-6.00087 41.97819,-8.43885 57.9398,-5.45329 29.23191,5.46771 53.33618,20.47875 71.3249,44.41789 9.49311,12.63329 16.73519,29.17471 19.82711,45.28654 2.70184,14.0791 1.51603,39.68932 -2.43837,52.66203 -8.11594,26.62495 -27.70386,51.19781 -51.76384,64.93723 -27.81464,15.88351 -58.23253,19.50278 -88.18666,10.49286 -40.40048,-12.15207 -70.95462,-45.76941 -78.7822,-86.68048 -1.89482,-9.90335 -1.81489,-29.94547 0.16108,-40.38914 4.93737,-26.09563 21.61472,-53.63908 40.78625,-67.36047 3.91328,-2.8008 5.59526,-4.67455 5.61036,-6.25 0.0343,-3.5769 -2.15796,-2.68965 -10.10186,4.08846 -26.76991,22.84134 -40.10176,50.18584 -42.49177,87.15344 -0.61667,9.53833 -0.92546,10.81625 -2.93115,12.13043 -3.57697,2.34372 -7.22717,0.85745 -8.40935,-3.42406 -1.30861,-4.7394 0.28699,-24.25291 2.8992,-35.45598 3.54067,-15.18495 11.26654,-32.08319 20.91335,-45.74229 6.05822,-8.57794 21.07054,-23.56943 28.89315,-28.85307 3.4375,-2.3218 6.25,-4.43117 6.25,-4.68748 0,-2.12037 -7.65154,-20.45942 -8.53623,-20.45942 -1.9925,0 -3.26298,1.54524 -64.95298,79 -16.42709,20.625 -30.12469,37.725 -30.43911,38 -0.31442,0.275 -2.09141,2.45733 -3.94886,4.84962 -3.3213,4.27765 -3.35439,4.4183 -2,8.5 0.76535,2.30653 1.32569,7.70446 1.26129,12.15038 -0.17175,11.85645 -4.37656,19.96251 -14.38135,27.72448 l -3.49723,2.71325 2.89654,8.53114 2.89654,8.53113 h 4.89615 c 3.86505,0 5.41306,0.51691 7.35069,2.45455 3.12282,3.12281 3.23961,7.73614 0.26599,10.50649 -2.00317,1.86624 -3.47416,2.03896 -17.36514,2.03896 -13.83954,0 -15.40871,-0.18259 -17.81144,-2.07258 -5.45178,-4.28837 -1.30748,-12.92742 6.2015,-12.92742 2.77172,0 3.29697,-0.26667 2.36364,-1.2 -0.66,-0.66 -1.2,-1.7899 -1.2,-2.5109 0,-0.72099 -0.9265,-3.28193 -2.05888,-5.69098 -1.5484,-3.29407 -2.5086,-4.26248 -3.87267,-3.90577 -2.20226,0.5759 -32.35984,-3.9967 -47.66021,-7.22642 -2.85071,-0.60175 -3.22862,-0.35298 -4.84708,3.19072 -5.95997,13.0496 -10.09191,19.59034 -18.41571,29.15149 -5.86239,6.73384 -16.94493,16.08305 -25.71532,21.69341 -22.47661,14.37811 -51.68265,20.43687 -76.70788,15.91296 z m 45.19814,-20.28151 c 18.70705,-6.37254 31.40413,-14.7244 43.64183,-28.7066 9.14508,-10.44873 16.05616,-21.37255 15.09924,-23.86623 -0.27034,-0.7045 -2.66726,-1.59805 -5.32649,-1.98567 -6.98031,-1.01747 -20.93531,-3.38857 -32.83497,-5.57901 -15.76646,-2.90222 -25.65912,-4.6847 -33.5,-6.03608 -3.575,-0.61616 -8.75,-1.50883 -11.5,-1.98373 -9.33475,-1.612 -12.95169,-3.16422 -17.14547,-7.35799 -7.403081,-7.40308 -8.074841,-17.19653 -1.77501,-25.87756 3.77403,-5.20054 7.73579,-7.31511 15.67957,-8.36889 6.04674,-0.80213 4.69297,0.47217 24.33468,-22.9061 26.12832,-31.09886 28.40623,-33.91372 28.40623,-35.10219 0,-1.41737 -15.26809,-9.40149 -23.47968,-12.27821 -3.28883,-1.15215 -9.52604,-2.76755 -13.86047,-3.58978 -27.83935,-5.28104 -60.19072,5.19178 -80.883973,26.18383 -15.371919,15.59389 -21.788821,28.01703 -27.678436,53.58556 -1.42036,6.1662 -1.405583,20.45773 0.02913,28.17545 7.419601,39.91203 35.356653,69.29371 74.294239,78.13601 4.1595,0.94458 10.97377,1.28353 21.57918,1.07338 14.39423,-0.28522 16.17205,-0.53607 24.92039,-3.51619 z m 366.07961,0.37125 c 26.33143,-8.49355 46.58957,-25.53836 58.24266,-49.00425 7.64751,-15.39982 10.18798,-27.48769 9.49912,-45.19795 -0.95403,-24.52778 -9.19427,-44.08364 -26.14851,-62.05603 -25.21181,-26.72585 -62.19274,-35.9183 -98.11739,-24.38932 -11.43251,3.66894 -15.71925,6.63879 -12.47588,8.6433 0.55,0.33992 1,1.62648 1,2.85902 0,1.23254 0.35814,2.66848 0.79586,3.19098 0.43772,0.5225 1.37504,2.75 2.08292,4.95 1.46917,4.56593 3.13226,8.46557 7.25006,17 6.26715,12.98912 10.80934,19.77673 21.07939,31.5 6.18412,7.05917 8.22185,8.72571 12.02133,9.83152 6.73035,1.95883 9.15385,5.01138 9.21801,11.61065 0.0584,6.01216 -2.12662,9.35382 -7.5984,11.62031 -6.20121,2.56862 -15.84917,-3.78002 -15.84917,-10.42921 0,-2.50612 -3.3001,-6.89328 -11,-14.62344 -8.60985,-8.64369 -20.37862,-26.79101 -24.97412,-38.50983 -1.29408,-3.3 -2.64866,-6.45 -3.01019,-7 -0.36152,-0.55 -1.74002,-4.2625 -3.06334,-8.25 -1.33575,-4.02494 -2.98162,-7.25 -3.69997,-7.25 -1.64296,0 -13.44963,11.88793 -18.91672,19.04692 -4.48219,5.86929 -12.30217,20.46673 -12.32296,23.00308 -0.007,0.8525 -0.42775,1.9775 -0.93503,2.5 -1.53784,1.58398 -4.25938,16.37548 -4.82144,26.20441 -1.10177,19.26697 4.68787,39.90995 15.81339,56.38279 4.27369,6.32777 21.06595,23.8628 22.852,23.8628 0.51454,0 1.54564,0.61011 2.29133,1.35581 2.21492,2.21492 15.82874,9.28333 22.28705,11.57162 11.88915,4.21254 18.14163,5.06064 34.5,4.67963 13.56372,-0.31592 16.56183,-0.70353 24,-3.10281 z M 190.66063,238.25888 c 11.85052,-0.59883 21.64239,-1.18233 21.75972,-1.29666 0.50894,-0.49596 -2.9272,-10.3604 -5.39961,-15.50115 -5.60814,-11.6607 -18.76382,-29.21876 -21.77193,-29.05761 -0.99547,0.0533 -4.66601,4.31864 -14.54179,16.89809 -2.475,3.15257 -8.8875,10.96344 -14.25,17.35748 -5.3625,6.39405 -9.75,11.86473 -9.75,12.15708 0,0.87131 20.93588,0.60589 43.95361,-0.55723 z m 43.0025,-3.16123 c -0.0241,-1.2375 -0.69237,-4.05 -1.48495,-6.25 -0.79257,-2.2 -1.44782,-4.5606 -1.4561,-5.24577 -0.0227,-1.88021 -6.69717,-15.95807 -10.78799,-22.75423 -4.67483,-7.76637 -8.48239,-12.76679 -14.65791,-19.25 -4.97649,-5.22444 -7.56916,-6.53653 -7.56916,-3.83059 0,1.10445 7.97919,10.88879 11.07505,13.58059 0.31629,0.275 2.38553,3.2 4.59832,6.5 5.19048,7.7407 11.57607,21.11603 14.32247,30 1.1902,3.85 2.33891,7.5625 2.55269,8.25 0.68793,2.21226 3.4544,1.4004 3.40758,-1 z m 19.04389,0.13127 c 0,-1.05117 -3.35146,-11.98306 -5.02211,-16.38127 -0.41784,-1.1 -4.00243,-12.125 -7.96578,-24.5 -3.96334,-12.375 -7.55859,-23.4 -7.98944,-24.5 -0.43085,-1.1 -2.26368,-6.6125 -4.07296,-12.25 -1.80927,-5.6375 -3.77562,-10.23609 -4.36965,-10.21908 -0.59403,0.017 -2.51797,1.92951 -4.27541,4.25 -1.75744,2.32049 -5.00716,6.24408 -7.22161,8.71908 -2.21445,2.475 -4.03905,4.97831 -4.05466,5.56291 -0.0156,0.5846 1.36978,2.3846 3.07865,4 15.13691,14.309 29.28448,39.52234 34.0524,60.68709 1.25362,5.56479 1.40075,5.75 4.56796,5.75 1.79993,0 3.27261,-0.50343 3.27261,-1.11873 z m 76.82041,-53.50358 c 2.84878,-3.91728 5.17959,-7.37761 5.17959,-7.68964 0,-0.31203 -1.6875,-0.70698 -3.75,-0.87768 -3.57526,-0.29591 -3.74681,-0.47346 -3.68161,-3.81037 0.0376,-1.925 0.39495,-4.85 0.79409,-6.5 l 0.7257,-3 -2.29409,2.90314 c -4.90365,6.20552 -9.79409,13.07603 -9.79409,13.75958 0,0.3941 1.6875,0.85621 3.75,1.02691 4.14866,0.34336 4.38955,1.147 2.7908,9.31037 -0.91615,4.67794 -0.7473,4.54021 6.27961,-5.12231 z"></path>
</svg>
