<svg xmlns="http://www.w3.org/2000/svg" xmlns:svg="http://www.w3.org/2000/svg"
   viewBox="28.57 14.08 598.92 363.9">
   <path style="fill:currentColor"
      d="m 129.84407,376.80025 c -1.76042,-0.45756 -3.47508,-1.27577 -3.81036,-1.81825 -0.34842,-0.56376 -2.32616,-0.71184 -4.61623,-0.34564 -3.2623,0.52166 -4.59316,0.20705 -7.16375,-1.69347 -1.84676,-1.36536 -4.3161,-2.24584 -5.94951,-2.12138 -3.045,0.23202 -7.65537,-1.78633 -9.695521,-4.24456 -0.70976,-0.85521 -1.72858,-1.28417 -2.26403,-0.95324 -1.53154,0.94654 -8.69064,-2.70431 -9.34483,-4.76549 C 86.637989,359.71814 85.469939,359 83.977449,359 c -1.49925,0 -3.94696,-1.51434 -6.37943,-3.94682 -2.17075,-2.17075 -5.3524,-4.67367 -7.07034,-5.56205 -1.71794,-0.88838 -4.03632,-3.16231 -5.15196,-5.05318 C 64.260079,342.54708 62.756739,341 62.034949,341 c -1.42661,0 -6.49011,-5.55241 -6.49011,-7.11678 0,-0.52983 -1.8,-2.67563 -4,-4.76844 -2.68037,-2.54977 -4,-4.66935 -4,-6.42476 0,-1.56172 -0.77701,-3.0355 -1.92403,-3.64936 -2.20821,-1.1818 -5.07597,-6.42841 -5.07597,-9.28657 0,-1.06625 -0.9,-3.0828 -2,-4.48122 -1.26902,-1.61329 -2,-4.05678 -2,-6.68549 0,-2.90541 -0.5974,-4.65441 -2,-5.85535 -1.54594,-1.32368 -2,-2.94994 -2,-7.16323 0,-2.99792 -0.41085,-5.70468 -0.91299,-6.01502 -1.51003,-0.93325 -2.32691,-8.237 -1.16425,-10.40947 0.82159,-1.53515 0.72199,-2.3567 -0.42475,-3.50344 -1.96761,-1.96761 -1.9153,-7.08073 0.093,-9.08901 1.2592,-1.2592 1.37928,-2.19836 0.57579,-4.50325 -1.16316,-3.33666 -0.56105,-6.76693 1.6329,-9.30267 1.21692,-1.4065 1.29089,-2.25172 0.37331,-4.26559 -0.90699,-1.99064 -0.81368,-3.33791 0.44992,-6.49594 0.87683,-2.19143 1.99538,-3.98441 2.48566,-3.98441 0.49028,0 0.89142,-1.84303 0.89142,-4.09563 0,-2.62653 0.79535,-5.2126 2.21733,-7.20958 1.22225,-1.7165 2.09721,-4.25905 1.94968,-5.66559 -0.17994,-1.71544 0.84909,-3.85879 3.14008,-6.54041 1.87425,-2.19384 3.75012,-5.11379 4.1686,-6.48879 0.95601,-3.14117 3.42135,-6 5.17417,-6 0.73694,0 2.27187,-1.9827 3.41095,-4.40599 1.27276,-2.70768 3.10643,-4.83486 4.75716,-5.51861 1.47736,-0.61194 3.58518,-2.79175 4.68406,-4.84401 1.09888,-2.05226 3.44436,-4.45405 5.21217,-5.33731 1.76781,-0.88326 4.53585,-3.02076 6.15121,-4.75 1.61535,-1.72924 3.86646,-3.14408 5.00246,-3.14408 1.136,0 3.64046,-1.575 5.56546,-3.5 3.49057,-3.49057 4.41688,-3.90419 7.91718,-3.53527 1.01779,0.10727 2.81779,-0.68467 4,-1.75988 3.434201,-3.12335 6.418421,-4.30095 9.157251,-3.61355 1.97971,0.49688 3.11618,0.0275 5.08993,-2.1022 2.24025,-2.41728 3.04926,-2.67227 6.83279,-2.15368 2.9503,0.40438 4.88205,0.14128 6.18059,-0.84179 2.32748,-1.76203 6.76722,-1.89884 9.34656,-0.28802 1.57601,0.98424 2.27656,0.89243 3.81517,-0.5 2.32958,-2.10823 5.81365,-2.16969 9.64793,-0.17018 2.00253,1.04429 3.2443,1.19954 3.95,0.49384 1.72695,-1.72695 7.65109,-1.15727 10.39286,0.99941 1.7673,1.39016 2.90282,1.70491 3.60773,1 1.88131,-1.88131 6.62581,-1.12246 9.22351,1.47524 2.09267,2.09268 3.12347,2.40485 6.27608,1.90073 3.3039,-0.52831 4.1308,-0.22322 6.66117,2.45771 2.21764,2.34959 3.68954,3.03081 6.33387,2.9314 2.69682,-0.10138 4.05951,0.5584 6.27536,3.03837 1.55678,1.74233 3.55491,3.16787 4.4403,3.16787 2.50304,0 7.22364,3.14727 7.75219,5.16847 1.16161,4.44199 3.55782,2.98334 16.15246,-9.8325 11.52557,-11.72802 12.51926,-13.02844 11.56153,-15.13043 -0.57629,-1.26481 -1.04779,-3.13033 -1.04779,-4.1456 0,-2.02558 -1.87493,-3.05994 -5.5466,-3.05994 -1.37023,0 -2.84413,-0.86157 -3.46795,-2.02719 -0.90994,-1.70023 -0.59304,-2.51907 1.96482,-5.07692 1.67735,-1.67736 3.04029,-3.57762 3.02875,-4.22281 -0.0115,-0.6452 -1.1656,-4.99808 -2.56458,-9.67308 -1.39898,-4.675 -3.44037,-11.65 -4.53642,-15.499999 -1.09605,-3.85 -2.45119,-8.575 -3.01143,-10.5 -0.56025,-1.925 -1.32192,-5.0072 -1.69261,-6.84932 -0.52024,-2.58533 -1.64954,-3.89692 -4.95082,-5.75 -2.35226,-1.32038 -5.86812,-2.40068 -7.81301,-2.40068 -4.1009,0 -14.29978,-4.61985 -22.91015,-10.37774 -8.12859,-5.43572 -8.5,-5.89377 -8.5,-10.48274 0,-3.32371 0.51918,-4.37302 3.05823,-6.18098 2.72659,-1.94151 3.83811,-2.10422 10.25,-1.50045 3.95547,0.37246 22.26677,0.98426 40.69177,1.35956 37.3928,0.76164 38.99969,1.05282 42.58871,7.71722 2.63069,4.8849 1.20352,5.85858 -8.85175,6.03905 -4.53033,0.0813 -9.81196,0.48563 -11.73696,0.89848 -5.13269,1.10082 -19,8.63052 -19,10.31666 0,1.33467 3.22586,12.036 5.03743,16.71094 0.42626,1.1 1.5415,4.925 2.47831,8.5 0.93682,3.574999 2.27327,8.299999 2.96989,10.499999 0.69663,2.2 1.82408,6.11342 2.50546,8.69649 1.16338,4.41032 1.46036,4.71498 4.87389,5 3.27001,0.27303 3.66577,0.62021 3.94121,3.45745 0.21537,2.21834 -0.26366,3.55323 -1.61483,4.5 -1.45917,1.02244 -1.72085,1.88701 -1.08842,3.59606 0.92486,2.4993 3.30583,2.85189 7.60001,1.12549 1.53838,-0.61848 3.69705,-1.4726 4.79705,-1.89804 3.1647,-1.22399 9.73328,-4.0678 12.90364,-5.58651 1.597,-0.76502 3.27323,-1.39094 3.72496,-1.39094 0.45172,0 3.76885,-1.35 7.3714,-3 3.60255,-1.65 6.76872,-3 7.03594,-3 0.26722,0 2.61845,-0.95236 5.22496,-2.11636 8.01553,-3.57953 10.53807,-4.64881 16.2391,-6.88364 3.025,-1.18581 6.9625,-2.79592 8.75,-3.57801 8.30108,-3.63202 16.52311,-7.136219 20,-8.523949 1.2375,-0.49392 3.375,-1.34804 4.75,-1.89804 1.375,-0.55 3.5125,-1.40412 4.75,-1.89804 2.43314,-0.97114 6.92448,-2.86438 13.25,-5.58529 5.655,-2.43248 10.26898,-4.32594 16,-6.56599 1.1,-0.42995 6.275,-2.56215 11.5,-4.73822 l 9.5,-3.95649 0.30011,-5.06599 c 0.26232,-4.42803 0.0105,-5.21856 -2,-6.27768 -3.19322,-1.6822 -3.88581,-2.98695 -3.23415,-6.09277 0.42778,-2.03881 0.0683,-2.94491 -1.50178,-3.78518 -2.9024,-1.55332 -2.57423,-5.17151 0.75869,-8.36465 2.19511,-2.10305 4.26776,-2.87843 9.32016,-3.48668 5.73164,-0.69002 15.85697,-5.02555 15.85697,-6.78973 0,-0.28733 -1.29163,-1.60925 -2.87029,-2.9376 -1.57866,-1.32836 -3.42779,-3.76111 -4.10918,-5.40612 -2.34024,-5.64984 3.92153,-12.30558 10.08904,-10.72381 2.33743,0.59948 8.22038,5.29381 16.3395,13.0382 2.22801,2.12518 6.60656,5.6078 9.7301,7.73916 6.44616,4.39856 7.72118,6.87382 5.38071,10.44584 -2.01432,3.07423 -2.67269,3.05873 -8.66746,-0.20403 l -4.87824,-2.65507 -4.25709,1.85479 c -2.3414,1.02014 -7.96812,3.82995 -12.50381,6.24403 -7.7063,4.1016 -8.20382,4.56018 -7.59203,6.99777 0.36008,1.43469 1.85558,3.619 3.32333,4.85403 1.79003,1.50621 3.11123,4.09042 4.01292,7.84912 0.73936,3.08198 1.71739,5.83419 2.17339,6.11602 0.45601,0.28183 0.82911,1.32585 0.82911,2.32004 0,1.78814 2.46143,8.53725 6.15727,16.88291 1.04942,2.36971 1.9677,5.895559 2.04062,7.835209 0.13269,3.52955 3.58774,7.22478 5.59517,5.98412 1.37628,-0.85059 5.22144,2.29332 6.38801,5.22301 1.34489,3.37757 2.71152,8.70382 3.34681,13.04384 0.40669,2.77829 3.2555,11.08662 8.00817,23.35525 0.76512,1.97508 2.615,2.43502 2.01101,0.5 -0.2146,-0.6875 -0.66728,-4.01355 -1.00597,-7.39122 -0.72507,-7.23103 0.62971,-9.35878 5.95891,-9.35878 4.26187,0 6.3288,2.07721 7.14483,7.18032 0.52572,3.2877 1.2229,4.28285 3.75047,5.35333 2.76309,1.17023 3.33185,1.10318 5.16915,-0.60937 2.23723,-2.08532 8.86077,-2.66332 9.96913,-0.86994 0.43042,0.69642 1.50438,0.49558 3.16371,-0.59165 2.66153,-1.7439 8.53872,-1.32839 11.09509,0.78441 0.92247,0.76241 1.62372,0.7368 2.45,-0.0895 1.85382,-1.85382 7.25718,-1.33911 10.19408,0.97106 2.00981,1.58091 2.99662,1.83824 3.83486,1 1.82483,-1.82483 5.18595,-1.30759 9.19879,1.4156 2.06207,1.39935 4.48736,2.47254 5.38955,2.38485 3.52796,-0.34291 5.09788,0.16426 7.95797,2.57087 1.68394,1.41694 4.23547,2.5 5.88963,2.5 1.93747,0 3.88473,1.00847 5.79274,3 1.5808,1.65 3.57749,3.00168 4.43709,3.00374 2.53417,0.006 8.23395,3.93431 8.78915,6.05742 0.28201,1.07839 1.69647,2.23985 3.14325,2.58102 3.14566,0.74178 7.13051,4.15272 7.13051,6.10356 0,1.84381 2.47063,4.25426 4.36048,4.25426 1.79604,0 5.63952,5.11007 5.63952,7.49799 0,0.92909 0.88406,1.92044 1.96457,2.203 2.01698,0.52745 6.03543,6.35739 6.03543,8.75617 0,0.73856 1.62626,2.9691 3.61392,4.95676 2.76171,2.76171 3.50024,4.20857 3.13185,6.13565 -0.31695,1.65804 0.10343,2.93765 1.22739,3.73608 2.49907,1.77528 4.02378,5.12611 4.04908,8.89861 0.0122,1.82366 0.90222,4.44074 1.97776,5.81574 2.09663,2.68039 2.69469,8.60177 0.92824,9.19059 -0.62865,0.20955 -0.21521,1.44617 1,2.99106 2.24398,2.85276 2.77594,8.71417 0.95603,10.53408 -0.82097,0.82097 -0.68888,1.72514 0.5,3.42251 2.0517,2.9292 2.0632,6.77789 0.0289,9.68221 -1.27585,1.82152 -1.3442,2.55778 -0.34881,3.75715 1.65878,1.99871 1.42624,6.88383 -0.45558,9.5705 -1.08348,1.54689 -1.35113,3.45285 -0.92324,6.57464 0.48154,3.51319 0.18462,4.96155 -1.4782,7.21064 -1.14443,1.54792 -2.0424,4.16434 -1.99549,5.81425 0.0552,1.94271 -1.00466,4.36583 -3.00766,6.87611 -1.70112,2.13194 -3.04709,4.55126 -2.99105,5.37626 0.29793,4.38599 -0.38532,5.90856 -3.21318,7.16029 -2.56222,1.13415 -3,1.87395 -3,5.06963 0,3.25747 -0.51766,4.08427 -4,6.38878 -2.28357,1.51119 -4,3.445 -4,4.50658 0,2.49878 -3.92182,6.87472 -6.16128,6.87472 -1.0941,0 -2.05069,0.99636 -2.43795,2.53932 -0.61041,2.4321 -6.03941,7.46068 -8.05475,7.46068 -0.53086,0 -2.51338,1.78981 -4.40561,3.97736 -2.42158,2.79952 -4.24796,3.98407 -6.16736,4 -1.7581,0.0146 -3.28538,0.87493 -4.29875,2.42151 -1.7251,2.63284 -6.62288,5.07576 -8.67348,4.32616 -0.71545,-0.26153 -2.51728,0.65738 -4.00407,2.04203 -1.90371,1.77293 -4.19592,2.66097 -7.75,3.00247 -2.77571,0.26671 -5.04675,0.84278 -5.04675,1.28015 0,1.44125 -6.94704,3.12086 -10.07062,2.43481 -2.21596,-0.48671 -3.59385,-0.19313 -4.97962,1.06097 -1.54311,1.39651 -2.9777,1.60909 -7.37278,1.09253 -3.28225,-0.38576 -5.70358,-0.24217 -6.07594,0.36033 -0.82085,1.32816 -7.10959,1.28154 -9.63766,-0.0714 -1.42184,-0.76094 -2.89357,-0.7634 -5.05919,-0.008 -2.46135,0.85803 -3.87787,0.70024 -7.29899,-0.81308 -2.33471,-1.03276 -5.41025,-1.65497 -6.83453,-1.38271 -1.51288,0.28921 -4.40088,-0.38179 -6.94586,-1.61379 -2.3959,-1.16035 -5.77348,-2.10932 -7.5057,-2.10932 -2.07346,0 -4.31683,-1.02495 -6.56629,-3 -2.25897,-1.98341 -4.49066,-3 -6.58578,-3 -2.35812,0 -4.00867,-0.91659 -6.45073,-3.58224 -1.80498,-1.97024 -3.91953,-3.49192 -4.69902,-3.38152 -2.99055,0.42355 -3.991,-0.15537 -6.67755,-3.86405 -1.52507,-2.10529 -3.34615,-3.63671 -4.04685,-3.40314 -1.51653,0.50551 -8.19285,-6.29092 -8.19285,-8.34025 0,-0.78584 -0.65182,-1.4288 -1.44848,-1.4288 -2.23195,0 -6.3122,-4.26009 -6.70217,-6.99756 -0.19214,-1.34881 -1.28435,-2.9165 -2.42713,-3.48376 -4.4106,-2.18937 -5.79518,-4.54086 -6.35332,-10.79012 -0.0379,-0.42429 -1.09635,-1.23957 -2.35212,-1.81174 -2.57856,-1.17487 -5.0431,-5.90288 -4.20942,-8.07541 0.30491,-0.79458 -0.57963,-2.50013 -1.97789,-3.81372 -1.99551,-1.87469 -2.52947,-3.34809 -2.52947,-6.97976 0,-3.36596 -0.53763,-5.06378 -2,-6.3159 -1.49444,-1.27958 -2,-2.94994 -2,-6.60794 0,-2.69251 -0.67223,-6.18441 -1.49384,-7.75978 -1.80508,-3.46109 -1.89612,-5.76703 -0.32688,-8.27978 0.94388,-1.51139 0.84407,-2.39995 -0.5,-4.45125 -2.06937,-3.15826 -2.1613,-7.0084 -0.21384,-8.95586 1.0794,-1.0794 1.30928,-2.78394 0.87265,-6.47057 -0.42774,-3.61165 -0.17518,-5.60135 0.90715,-7.14659 0.99899,-1.42626 1.33974,-3.56268 1.02028,-6.3969 -0.39192,-3.47714 -0.0308,-4.7957 1.97448,-7.2094 1.91206,-2.3015 2.35455,-3.77156 2.00331,-6.65555 -0.37664,-3.09254 0.0144,-4.13278 2.37687,-6.32221 1.93824,-1.7963 2.89976,-3.74726 3.05682,-6.20238 0.15155,-2.36887 1.21796,-4.63018 3.14918,-6.67779 1.60602,-1.70282 3.19816,-4.22103 3.53809,-5.59603 0.79427,-3.21279 1.52973,-4.16057 4.88573,-6.29615 1.57798,-1.00414 2.75,-2.64907 2.75,-3.85961 0,-2.27015 3.16069,-5.53774 6.66877,-6.89431 1.19282,-0.46126 2.77341,-2.10021 3.51242,-3.6421 0.73901,-1.54188 3.03203,-3.70442 5.09561,-4.80563 2.06358,-1.10121 4.44781,-3.01727 5.29829,-4.25791 1.7449,-2.54539 6.83839,-5.49748 7.80958,-4.52629 0.35103,0.35104 1.97091,-0.72484 3.59972,-2.39083 2.53159,-2.58937 2.83675,-3.44992 2.10222,-5.92813 -1.80005,-6.07306 -7.90736,-20.43387 -9.10051,-21.39904 -0.33995,-0.275 -2.0699,-2.6337 -3.84432,-5.24155 -2.09637,-3.08101 -4.17452,-4.94384 -5.934,-5.3192 -5.26893,-1.12405 -6.72341,-2.21128 -8.09891,-6.054 -1.77507,-4.95898 -2.82787,-5.58192 -6.35292,-3.75905 -5.5972,2.89443 -10.71726,8.88315 -21.86139,25.57034 -4.51911,6.7669 -8.52674,12.52846 -8.90586,12.80346 -0.37911,0.275 -1.24154,1.5481 -1.91652,2.82911 -0.67497,1.281 -1.84409,3.081 -2.59804,4 -0.75395,0.91899 -3.93237,5.27089 -7.06315,9.67089 -5.71865,8.03698 -7.61953,10.79602 -33.41466,48.5 -12.69511,18.55607 -18.71577,27.23828 -25.48654,36.7534 l -2.31506,3.2534 1.99432,5.2466 c 1.54311,4.05959 1.91689,7.05655 1.6521,13.2466 -0.40127,9.38071 -2.84558,15.00336 -8.93794,20.55998 -4.03795,3.68286 -4.57399,5.59685 -2.95211,10.5408 0.52311,1.59457 1.44046,4.81172 2.03855,7.14922 l 1.08744,4.25 h 4.81543 c 8.72495,0 13.0721,7.12628 7.65293,12.54545 C 322.69416,332.9416 322.26483,333 307.04485,333 c -15.21998,0 -15.64931,-0.0584 -18.04545,-2.45455 -4.78656,-4.78655 -2.06683,-11.25125 5.14014,-12.21791 l 4.07425,-0.54647 -2.24091,-6.14054 c -2.57029,-7.04307 -1.65962,-6.8235 -15.42803,-3.71986 -10.2377,2.30776 -18.14612,3.85177 -24.5,4.78329 -4.65648,0.68267 -11.94522,6.58643 -12.09791,9.79912 -0.15667,3.29646 -2.23186,6.35753 -5.43173,8.01225 -1.9174,0.99152 -2.98215,2.32453 -3.00363,3.76035 -0.0414,2.76582 -2.60598,5.84051 -6.21673,7.4532 -1.5125,0.67553 -2.75,1.77577 -2.75,2.44496 0,2.13117 -5.28714,6.82616 -7.68709,6.82616 -1.3245,0 -2.31291,0.60303 -2.31291,1.41111 0,2.3137 -5.88941,6.58889 -9.07673,6.58889 -1.91152,0 -2.92327,0.51118 -2.92327,1.47695 0,2.03638 -4.45645,4.77374 -7.76525,4.76977 -1.60341,-0.002 -4.12522,1.21517 -6.0959,2.94204 -2.45071,2.14752 -4.21138,2.87392 -6.5,2.68173 -1.82251,-0.15305 -4.37875,0.55273 -6.09543,1.68296 -1.93131,1.27154 -4.70549,1.95248 -8,1.96364 -2.93825,0.01 -6.44286,0.77331 -8.39611,1.82879 -2.83536,1.53214 -3.80671,1.62363 -6.29506,0.59292 -2.23129,-0.92423 -3.54703,-0.94327 -5.44436,-0.0788 -3.25434,1.48277 -6.94095,1.44854 -9.40019,-0.0873 -1.43774,-0.89788 -2.70894,-0.94724 -4.73643,-0.18391 -1.67127,0.62921 -4.04175,0.71313 -5.97204,0.21143 z m 33.70077,-29.42767 c 16.83443,-4.05681 27.66475,-9.45278 39.74668,-19.80292 4.57413,-3.91848 2.80519,-4.15649 -11.24668,-1.51325 -11.17051,2.10124 -25.48087,4.8598 -33.50425,6.45851 -6.83757,1.36242 -9.32582,1.47329 -12.69638,0.56569 -4.43282,-1.19363 -8.29937,-5.03966 -8.29937,-8.25531 0,-2.63597 3.33292,-8.91657 6.00999,-11.3253 2.23163,-2.00794 7.99001,-9.87562 7.99001,-10.91676 0,-0.30602 -1.68136,-1.25892 -3.73635,-2.11755 -2.055,-0.85863 -4.6425,-2.39579 -5.75,-3.41591 -2.79547,-2.5749 -8.18531,-5.38444 -13.51365,-7.04421 -7.87706,-2.45369 -9.29049,-3.80316 -8.68802,-8.29491 0.31029,-2.31333 -0.0959,-5.61803 -0.99129,-8.06498 -5.4395,-14.8653 2.18913,-32.3254 16.45572,-37.66321 5.66568,-2.11981 13.51714,-2.58176 17.58618,-1.03471 2.32883,0.88542 3.86233,-0.46208 23.3151,-20.48719 11.45227,-11.78922 20.96027,-22.07657 21.12889,-22.86079 0.64138,-2.98302 -13.42091,-10.83106 -27.31372,-15.24356 -8.38475,-2.66308 -10.0748,-2.85238 -24.99286,-2.79943 -15.34977,0.0545 -16.38608,0.18855 -25.5,3.2992 -15.82538,5.40132 -29.598661,14.07922 -37.643311,23.71731 -2.12118,2.54134 -4.3215,5.13948 -4.88961,5.77366 -5.53814,6.18224 -12.96461,21.02878 -16.08344,32.15304 -1.98341,7.07445 -2.84798,29.59407 -1.42049,37 0.63607,3.3 1.40429,7.46667 1.70716,9.25927 0.30286,1.7926 0.95094,3.50665 1.44017,3.80902 0.48924,0.30236 0.89523,1.31069 0.90222,2.24073 0.0196,2.6059 7.67482,17.04742 12.29321,23.19098 9.20755,12.24825 20.33794,21.2172 34.130711,27.50276 17.83928,8.12962 35.95008,10.11432 53.56338,5.86982 z m 365,-0.046 c 19.53878,-4.50884 33.59557,-12.44459 45.90983,-25.91834 11.33216,-12.3992 16.84812,-22.68406 21.93986,-40.90829 4.04781,-14.4878 2.52966,-34.78985 -3.81368,-51 -8.56683,-21.89219 -26.51734,-40.41087 -48.0549,-49.57592 -12.86526,-5.47466 -22.77559,-7.21652 -37.48111,-6.58776 -11.37169,0.48622 -22.59334,2.42368 -24.37874,4.20909 -0.31972,0.31972 0.3833,3.1403 1.56227,6.26795 1.17897,3.12765 5.15746,13.86206 8.84109,23.85424 l 6.69751,18.1676 9.13894,-0.13606 c 13.2064,-0.19662 21.4956,3.40788 29.05658,12.63505 12.17726,14.86075 11.18413,34.87075 -2.39721,48.29986 -23.1728,22.91306 -62.72833,4.95067 -60.84179,-27.6286 0.35218,-6.08199 3.97209,-15.71347 7.91096,-21.04872 0.8844,-1.19793 0.58852,-2.98815 -1.32221,-8 -3.4795,-9.12677 -9.44438,-25.06303 -12.88806,-34.43278 -1.6123,-4.38683 -3.28029,-8.3249 -3.70666,-8.75127 -2.08863,-2.08863 -19.07022,13.36536 -26.2161,23.85779 -5.06736,7.44055 -10.95658,18.76058 -10.95658,21.06036 0,0.735 -0.40614,2.11775 -0.90254,3.07279 -2.7044,5.20312 -3.59746,11.59215 -3.59746,25.73643 0,19.94841 2.84641,30.1417 13.54332,48.5 2.11868,3.63614 10.90807,13.97743 14.85855,17.48206 5.43357,4.82034 17.07038,12.4234 23.73808,15.50958 16.13979,7.47037 35.65243,9.42127 53.36005,5.33499 z m -358.5,-24.85619 c 4.4,-0.82101 10.025,-1.93237 12.5,-2.46969 5.97354,-1.29683 25.66357,-5.08164 29.71131,-5.7111 4.29725,-0.66825 8.64575,-6.60588 14.12698,-19.2896 0.92866,-2.14893 5.16171,-14.90799 5.16171,-15.55817 0,-0.86571 -4.79439,-1.83598 -12.5,-2.52971 -4.95,-0.44564 -13.95,-1.26666 -20,-1.82447 -6.05,-0.55782 -14.825,-1.30829 -19.5,-1.66771 l -8.5,-0.65349 -1.93986,3.34248 c -1.06693,1.83836 -3.69993,5.06769 -5.85112,7.17629 -3.84428,3.76816 -3.87956,3.8689 -2.06014,5.8821 1.41628,1.56713 1.85045,3.63037 1.84829,8.78332 -0.002,5.83513 -0.43042,7.42289 -3.20288,11.88285 -3.098,4.98363 -3.1527,5.26113 -1.71536,8.70118 0.81658,1.95435 1.21882,3.98356 0.89387,4.50935 -0.80703,1.30579 1.6361,1.1787 11.0272,-0.57363 z m 95.89922,-19.55293 c 1.59458,-0.5046 3.90198,-0.91746 5.12756,-0.91746 1.22558,0 2.78853,-0.675 3.47322,-1.5 1.0143,-1.22216 0.96153,-1.5 -0.28489,-1.5 -2.3168,0 -10.01253,-9.12045 -11.74602,-13.92058 -0.842,-2.33155 -1.967,-4.20914 -2.5,-4.17243 -0.533,0.0367 -1.10882,2.42983 -1.27961,5.31802 -0.17951,3.03569 -0.98964,6.00168 -1.92016,7.02989 -0.9553,1.0556 -1.68074,3.79915 -1.78453,6.74891 l -0.17488,4.97027 4.09504,-0.56958 c 2.25228,-0.31327 5.3997,-0.98244 6.99427,-1.48704 z M 520.21193,283.9357 c 8.88391,-3.79461 14.05175,-10.81139 15.04412,-20.42655 1.43556,-13.90919 -8.57927,-26.24434 -22.07164,-27.1854 -8.55891,-0.59697 -9.58531,0.30307 -7.09991,6.22577 1.70209,4.05607 2.55316,4.86807 6.46034,6.16375 5.50964,1.82709 7.85286,3.7866 9.67345,8.08941 1.82603,4.31568 0.88007,9.10984 -2.62622,13.30981 -2.5403,3.04287 -3.23783,3.31608 -8.46625,3.31608 -5.35408,0 -5.95077,-0.25234 -9.88942,-4.18225 -2.30536,-2.30024 -5.43484,-5.20917 -6.95441,-6.46429 -1.57031,-1.29703 -3.30632,-4.19156 -4.02196,-6.70602 -2.34748,-8.24799 -4.67578,-5.68033 -4.70154,5.18489 -0.0173,7.30878 2.84762,13.61076 8.36718,18.40519 7.44271,6.46493 17.37111,8.07758 26.28626,4.26961 z M 232.85761,256.75 c -0.32615,-2.8875 -0.64565,-5.32821 -0.71002,-5.4238 -0.0644,-0.0956 -13.61381,-0.27889 -30.10988,-0.40733 l -29.99287,-0.23353 0.34757,2.40733 c 0.5835,4.04137 1.83072,4.61365 11.41222,5.23647 25.60105,1.66412 37.01452,2.61184 37.51798,3.1153 C 221.62817,261.75 224.48197,262 227.66439,262 h 5.78622 z m 33.47963,-1 3.13993,-4.75 h -4.46616 c -4.09725,0 -4.46617,0.20651 -4.46617,2.5 0,1.375 0.45,2.5 1,2.5 0.55,0 1,1.2 1,2.66667 0,1.46666 0.14681,2.47916 0.32624,2.25 0.17943,-0.22917 1.7392,-2.55417 3.46616,-5.16667 z m 36.70659,-15.5 c 6.01191,-8.57637 48.61124,-71.15709 60.33422,-88.63422 6.96673,-10.38632 13.13356,-19.38632 13.70406,-20 0.57049,-0.61368 3.52501,-4.71578 6.56559,-9.11578 3.04058,-4.4 7.68764,-11.06116 10.32681,-14.80259 2.63917,-3.74142 4.53832,-7.06275 4.22035,-7.38073 -0.31798,-0.317979 -3.18182,0.42456 -6.36408,1.65008 -3.18227,1.22552 -6.68594,2.57551 -7.78594,2.99998 -1.1,0.42447 -4.475,1.78944 -7.5,3.03326 -6.23305,2.56291 -5.00168,2.08013 -23,9.01757 -7.425,2.86196 -15.4076,6.05381 -17.7391,7.093 -2.33151,1.03919 -4.82901,1.88943 -5.55,1.88943 -0.721,0 -1.7384,0.37983 -2.2609,0.84408 -0.5225,0.46424 -3.65,1.8502 -6.95,3.07991 -3.3,1.22971 -6.78139,2.64987 -7.73643,3.15592 -0.95504,0.50605 -2.19744,0.92009 -2.7609,0.92009 -0.56346,0 -3.15706,0.94485 -5.76357,2.09966 -5.74183,2.54392 -5.02666,2.25436 -24.4891,9.91518 -18.23955,7.17946 -17.39148,5.89061 -13.15031,19.98516 1.40674,4.675 3.84008,12.775 5.4074,18 1.56733,5.225 3.74055,12.425 4.82938,16 1.08883,3.575 4.38356,14.49916 7.32161,24.27591 5.14419,17.11795 5.45296,17.80863 8.34192,18.65982 5.66118,1.66796 7.24539,1.24245 9.99899,-2.68573 z m -72.94171,1.46133 c 0.63284,-1.64915 -2.81137,-12.4557 -6.26255,-19.64939 C 219.57824,213.17954 211.49932,202 209.34177,202 c -0.47986,0 -9.60892,8.8875 -20.28681,19.75 l -19.41435,19.75 8.20212,0.5637 c 4.51116,0.31003 18.00373,0.64753 29.98349,0.75 16.98717,0.14529 21.89023,-0.0973 22.2759,-1.10237 z M 271.28093,239.75 c -0.49202,-3.31269 -2.14907,-9.27307 -7.64527,-27.5 -6.87629,-22.80365 -9.29486,-30.89118 -10.09293,-33.75 -2.94792,-10.55995 -4.39954,-15.10612 -5.06521,-15.86316 -0.71617,-0.81445 -2.35251,0.68624 -14.36123,13.17064 l -4.92856,5.12378 2.54745,2.00382 c 1.40109,1.1021 2.80317,3.28245 3.11572,4.84523 0.35324,1.76618 1.55967,3.29311 3.18815,4.0351 1.62758,0.74157 3.55548,3.18045 5.09007,6.43914 1.3586,2.885 3.58293,6.7745 4.94295,8.64333 1.36003,1.86884 2.47277,4.49671 2.47277,5.83971 0,1.343 0.9548,3.21498 2.12178,4.15994 1.55693,1.26072 2.15592,2.93938 2.25,6.30557 0.0843,3.01748 0.80058,5.33032 2.09284,6.75807 1.43376,1.58409 1.91103,3.40169 1.76633,6.72663 -0.10906,2.50582 0.0459,4.95116 0.3444,5.43411 0.29847,0.48295 3.26536,0.87809 6.59307,0.87809 h 6.05039 z"></path>
</svg>
