<svg xmlns="http://www.w3.org/2000/svg" xmlns:svg="http://www.w3.org/2000/svg"
   viewBox="24.67 21.52 600.48 355.63">
   <path style="fill:currentColor"
      d="M 127.71483,375.98374 C 44.360724,364.38758 -3.4521752,262.32678 42.646116,194.39715 c 1.412793,-2.08186 2.568715,-4.01661 2.568715,-4.29944 0,-1.32568 11.230016,-14.4947 18.5,-21.69426 3.472455,-3.43881 16.85067,-13.70269 17.860462,-13.70269 0.37533,0 2.397303,-1.13486 4.493272,-2.5219 21.135935,-13.9871 58.568145,-19.28938 87.146265,-12.34429 10.85677,2.63843 26.62046,9.03562 32.39182,13.14519 2.94605,2.09778 2.94605,2.09778 4.52712,-0.31414 0.86958,-1.32656 6.65538,-9.51416 12.85732,-18.19469 14.29773,-20.01175 13.96592,-17.64608 6.24326,-44.512007 -3.3825,-11.767155 -6.14542,-21.550593 -6.99191,-24.75816 -2.68634,-10.179202 -7.69755,-14.75899 -17.95724,-16.411264 -3.44083,-0.554129 -8.12677,-2.137788 -10.41321,-3.519242 -22.60749,-13.659328 -23.5062,-14.502796 -21.27603,-19.968322 1.64967,-4.042898 4.7472,-4.563268 16.61887,-2.791893 6.40295,0.955387 19.93216,1.478457 41.5,1.604486 33.52805,0.195915 35.56714,0.440462 40.25,4.827161 5.6684,5.30991 2.8719,7.103534 -12.25,7.85694 -11.2402,0.560011 -12.4907,0.836136 -19.75,4.361024 -8.78835,4.267349 -8.37744,3.748317 -5.80438,7.331603 1.62776,2.266846 4.5939,11.732165 11.03359,35.209507 4.02636,14.67901 6.31253,21.174717 7.63046,21.680457 1.43476,0.55057 20.26978,-1.84728 28.89033,-3.67798 3.74846,-0.79604 8.83151,-1.59787 25.25,-3.983097 3.7125,-0.53934 8.325,-1.23445 10.25,-1.5447 1.925,-0.31024 6.2,-0.95191 9.5,-1.42592 3.3,-0.474018 9.15,-1.373777 13,-1.999465 3.85,-0.625689 9.8125,-1.567743 13.25,-2.093455 3.4375,-0.525712 9.2875,-1.42331 13,-1.994662 7.23418,-1.113336 17.07103,-2.568917 26.75,-3.958256 30.5423,-4.384104 29.90706,-3.891404 25.3294,-19.645908 -2.81334,-9.682402 -1.16133,-11.954609 9.76305,-13.428245 3.79915,-0.512483 11.85755,-1.669454 17.90755,-2.571045 14.16564,-2.111011 31.57794,-2.824084 36.85864,-1.509444 9.96951,2.481927 25.40622,-1.993869 27.99813,-8.117915 3.75217,-8.865472 15.15875,-9.6097 19.61672,-1.279904 1.12626,2.104449 1.00638,3.171447 -0.87795,7.814154 -1.81077,4.461441 -1.99196,5.875636 -1.0642,8.306146 0.61498,1.611082 1.48888,10.186064 1.942,19.055516 0.45313,8.869452 1.31949,17.052369 1.92526,18.184259 2.86334,5.350194 0.0882,8.706941 -4.65632,5.632184 -8.90189,-5.769025 -10.44279,-11.618338 -7.69528,-29.211535 1.05662,-6.765839 -0.76522,-7.957396 -7.547,-4.936062 -5.44958,2.427827 -7,4.716283 -7,10.332138 0,5.319011 -0.5806,7.371675 -4.27003,15.096356 -8.89814,18.63032 -44.88045,33.1831 -47.25758,19.11297 -0.89325,-5.2871 1.39016,-8.836587 5.68464,-8.836587 4.62708,0 14.94229,-3.06666 16.84297,-5.007331 0.275,-0.280786 2.09881,-1.579436 4.05292,-2.88589 7.4452,-4.977624 10.49296,-13.524803 7.38268,-20.704063 -4.32474,-9.982491 -13.44851,-11.045139 -44.6856,-5.204543 -6.60176,1.234373 -6.62048,1.282695 -3.15912,8.1566 2.82247,5.605141 3.21265,6.713501 9.38,26.645227 2.29747,7.424997 4.55436,14.624997 5.01532,15.999997 0.46095,1.375 2.73196,8.43071 5.04668,15.67935 4.20858,13.17935 4.20858,13.17935 6.83785,12.17581 40.00181,-15.2679 90.11418,-4.93003 121.4703,25.05855 79.53018,76.06162 28.04936,207.39728 -81.34103,207.51373 -119.01675,0.1267 -165.03775,-152.37101 -66.21917,-219.42744 2.21049,-1.5 2.21049,-1.5 -0.12435,-8.78918 -3.47524,-10.84942 -5.97485,-11.07682 -14.15648,-1.28789 -2.2,2.63219 -8.89789,10.36384 -14.8842,17.18144 -5.98631,6.81759 -14.76131,16.8627 -19.5,22.32245 -4.73869,5.45975 -12.01426,13.78475 -16.16793,18.5 -4.15368,4.71525 -12.00991,13.74818 -17.45829,20.07318 -5.44838,6.325 -10.15853,11.725 -10.467,12 -0.30848,0.275 -3.47725,3.875 -7.04172,8 -3.56447,4.125 -6.70662,7.725 -6.98256,8 -6.5761,6.55382 -7.75783,11.5738 -3.68364,15.648 0.37694,0.37693 0.68534,2.15878 0.68534,3.95965 0,4.06254 0.88486,4.62089 9,5.67895 3.575,0.46612 8.975,1.1741 12,1.5733 11.9051,1.57108 16.36998,8.33689 10.1187,15.33328 -3.00895,3.3676 -6.41055,3.38421 -29.14363,0.14235 -3.20812,-0.45749 -3.67063,-0.20305 -5.14591,2.8309 -9.69299,19.93396 -38.11218,27.39319 -56.02686,14.70545 -4.19927,-2.97406 -9.8023,-8.52782 -9.8023,-9.7161 0,-5.26632 -3.15269,-2.48124 -7.94023,7.01439 -23.65787,46.92308 -73.25865,73.24978 -124.55977,66.11281 z m 41,-19.13608 c 35.08223,-9.70189 62.10113,-34.32628 72.89178,-66.43185 2.42429,-7.21301 2.39339,-7.26029 -5.64178,-8.63116 -3.9875,-0.6803 -9.05,-1.61593 -11.25,-2.07918 -2.2,-0.46324 -6.475,-1.31532 -9.5,-1.8935 -3.025,-0.57818 -7.975,-1.52822 -11,-2.11121 -12.06602,-2.3254 -24.86934,-4.68061 -29.75,-5.47261 -1.7875,-0.29006 -4.56889,-0.7989 -6.18088,-1.13074 -2.2061,-0.45416 -3.50437,-0.0574 -5.25,1.60455 -10.58041,10.073 -22.24041,10.44418 -31.96904,1.01768 -13.73139,-13.30496 -5.59671,-34.90383 13.82885,-36.71782 6.91704,-0.64592 5.6269,0.84661 34.82107,-40.2837 20.67105,-29.12249 19.41913,-25.67753 10.87646,-29.92908 -82.5787,-41.09801 -171.992201,38.58153 -141.854658,126.41172 8.784054,25.59947 30.211652,48.69715 55.522328,59.84978 19.52249,8.60219 45.77483,10.9633 64.45587,5.79712 z m 360,0.0253 c 107.6207,-30.15059 102.99345,-180.78461 -6.19525,-201.67834 -16.17893,-3.09591 -48.5086,0.3767 -53.92401,5.79211 -0.41926,0.41926 4.07659,12.9199 6.11928,17.01457 0.82499,1.65373 1.49998,3.39254 1.49998,3.86404 0,0.47149 0.94485,2.98985 2.09966,5.59636 1.15481,2.6065 2.46724,5.6391 2.9165,6.7391 8.04421,19.69601 24.53045,49.84661 30.5443,55.86046 3.42784,3.42784 3.65638,4.0234 3.17676,8.27856 -1.35794,12.0476 -18.18561,12.42042 -20.35826,0.45105 -0.84631,-4.66241 -4.46707,-11.81956 -10.52003,-20.79491 -2.67241,-3.9627 -4.85893,-7.44146 -4.85893,-7.73062 0,-0.28916 -1.50754,-2.89698 -3.35008,-5.79516 -1.84255,-2.89818 -4.83015,-7.96942 -6.6391,-11.26942 -1.80896,-3.3 -4.65413,-8.475 -6.3226,-11.5 -3.51286,-6.36894 -10.79286,-21.0151 -12.79926,-25.75 -5.34787,-12.62041 -36.40056,25.36435 -43.72238,53.48277 -19.72009,75.73222 49.50203,147.84354 122.33342,127.43939 z M 246.56846,251.70076 c -0.0922,-7.87064 -0.7233,-14.53692 -1.70418,-18 -0.8568,-3.025 -1.84099,-6.625 -2.1871,-8 -3.47049,-13.78744 -18.6263,-37.41769 -29.54532,-46.06571 -4.43799,-3.51495 -5.78913,-1.93411 -39.91703,46.70307 -10.95854,15.6175 -10.45956,14.07248 -7.00523,21.69084 2.95717,6.52188 2.95717,6.52188 8.7312,7.12992 3.17572,0.33442 8.24903,1.01496 11.27403,1.5123 8.47489,1.39339 18.61189,2.83211 28.5,4.04496 4.95,0.60715 11.475,1.52671 14.5,2.04347 18.35481,3.1355 17.52602,3.66365 17.35363,-11.05885 z m 24.02209,-4.43529 c 1.92732,-1.50947 1.9107,-2.04231 -0.30614,-9.81471 -0.58827,-2.0625 -1.51958,-5.325 -2.06958,-7.25 -0.55,-1.925 -1.40935,-4.9625 -1.90966,-6.75 -1.03999,-3.71564 -4.77797,-16.78299 -6.07867,-21.25 -0.48044,-1.65 -1.76924,-6.375 -2.864,-10.5 -4.82438,-18.17808 -7.13173,-26.37339 -10.13562,-36 -0.42905,-1.375 -1.33448,-4.525 -2.01205,-7 -0.67757,-2.475 -1.59319,-5.625 -2.03469,-7 -0.44151,-1.375 -1.07289,-3.7375 -1.40308,-5.25 -0.81847,-3.74923 -1.54257,-3.47353 -5.3001,2.01797 -5.48053,8.00961 -10.20757,14.66031 -11.53706,16.23203 -5.94725,7.03086 -6.02988,6.5258 2.39544,14.64132 20.41473,19.66405 32.15197,42.97967 37.02317,73.54521 1.30443,8.18495 1.33978,8.20979 6.23204,4.37818 z m 41.88856,-7.31471 c 2.50762,-3.1625 6.0615,-7.33822 7.89752,-9.27939 1.83601,-1.94116 5.8104,-6.44116 8.83198,-10 3.02158,-3.55883 5.73636,-6.69561 6.03286,-6.97061 0.2965,-0.275 7.30079,-8.6 15.5651,-18.5 28.45183,-34.08308 51.84689,-62.00241 52.87645,-63.102 24.14619,-25.78858 19.08538,-33.179427 -19.46819,-28.43148 -4.675,0.57574 -12.55,1.50483 -17.5,2.06464 -20.01675,2.26379 -40.7859,4.78622 -49,5.9511 -3.3,0.46798 -9.6,1.35104 -14,1.96235 -4.4,0.6113 -11.375,1.58317 -15.5,2.1597 -4.125,0.57654 -10.425,1.41954 -14,1.87335 -19.23985,2.4423 -19.24338,2.44498 -16.26516,12.33758 1.35523,4.50162 2.82901,9.75976 3.27505,11.68476 1.76575,7.6205 4.16805,16.60265 4.94788,18.5 0.45211,1.1 1.34956,4.025 1.99433,6.5 1.15755,4.44329 4.52058,16.14399 6.03585,21 0.42905,1.375 1.24516,4.3 1.81357,6.5 11.19353,43.32414 12.81383,47.44017 18.69848,47.49974 3.05018,0.0309 9.90112,2.06805 11.148,3.31492 1.281,1.28101 2.05359,0.6896 6.61628,-5.06466 z"></path>
</svg>
