<svg xmlns="http://www.w3.org/2000/svg" xmlns:svg="http://www.w3.org/2000/svg"
   viewBox="0 -0.02 600.55 372.25">
   <path style="fill:currentColor"
      d="M 104.53331,370.83696 C 80.553065,366.76866 61.477419,357.08643 43.855245,340.03859 29.744055,326.38729 21.040194,312.63882 15.224803,294.8144 c -8.5546366,-26.22032 -7.2152306,-52.60177 4.036274,-79.5 11.061881,-26.44491 35.701147,-50.08518 62.344038,-59.8163 19.672495,-7.18524 41.587635,-9.03911 60.473445,-5.11562 14.54791,3.02229 28.78349,8.62193 37.9472,14.92673 4.18186,2.87719 7.50755,3.42086 7.50755,1.22729 0,-1.05894 -13.70028,-9.18749 -21,-12.45956 -15.43506,-6.9187 -26.93913,-9.18051 -46.5,-9.14232 -14.04928,0.0274 -17.25422,0.3572 -26.287225,2.70479 -10.67875,2.77531 -22.522542,7.68314 -32.529014,13.47939 -8.534902,4.94384 -22.370554,16.83799 -28.810287,24.76746 -6.410575,7.89356 -15.366791,23.07087 -18.840983,31.92814 -1.294397,3.3 -3.025977,6.7875 -3.8479556,7.75 -2.206089,2.58323 -6.816145,2.24186 -8.707549,-0.64479 -1.44541999,-2.20599 -1.40302399,-2.88784 0.537772,-8.64901 7.783135,-23.10388 26.6747706,-47.30244 47.7775256,-61.1989 20.373846,-13.41646 35.480881,-18.85331 60.574036,-21.79988 25.61314,-3.00763 55.46019,4.38912 79.4031,19.6778 5.80996,3.70995 6.79688,3.95265 8.59938,2.11478 3.00017,-3.05904 19.86575,-23.37328 20.32082,-24.476 0.27826,-0.6743 -1.62649,-7.7618 -4.2328,-15.75 l -4.73873,-14.524 h -5.3241 c -6.45633,0 -12.3311,-1.807634 -22.89399,-7.044354 -12.48804,-6.191143 -13.93079,-7.651013 -13.91728,-14.082377 0.0141,-6.720233 2.09523,-10.054861 8.08464,-12.954287 4.83436,-2.340273 10.2305,-2.283058 22.33264,0.236791 3.17508,0.661101 15.92282,1.187253 30.15701,1.244706 l 24.65701,0.09952 3.84299,3.103816 c 4.4218,3.571295 6.30667,7.644889 4.70915,10.177477 -1.12936,1.7904 -4.55753,2.863976 -13.36616,4.185788 -3.025,0.453927 -6.4,1.139907 -7.5,1.5244 -4.03822,1.411514 -14.53579,6.846716 -15.52435,8.037856 -0.71871,0.86599 0.61977,5.897684 4.54847,17.098874 3.06177,8.72949 11.21644,32.74679 18.12148,53.37179 6.90503,20.625 12.95968,37.99625 13.45477,38.60278 1.22426,1.49984 14.45319,-0.82677 26.32646,-4.63012 18.27281,-5.85331 36.10348,-19.42424 49.90116,-37.97982 2.65539,-3.57106 5.66176,-7.61784 6.68082,-8.99284 1.01906,-1.375 8.86135,-11.95 17.42731,-23.5 8.56597,-11.55 16.3596,-22.05944 17.31918,-23.35431 0.95959,-1.29487 4.97278,-6.643614 8.9182,-11.886104 6.47216,-8.599865 7.07533,-9.787345 6.16931,-12.145686 -0.55232,-1.437645 -1.17915,-4.6389 -1.39297,-7.1139 -0.21381,-2.475 -1.9775,-8.937901 -3.9193,-14.362002 -5.43812,-15.19052 -4.82753,-18.989818 4.37233,-27.205929 7.55541,-6.747509 8.59167,-13.155264 2.90173,-17.943032 -3.89001,-3.273232 -9.75689,-3.315648 -15.81256,-0.11432 -4.66663,2.467015 -30.18319,8.625283 -35.73854,8.625283 -4.46829,0 -7.2535,-3.276732 -7.2535,-8.533574 0,-5.0767415 1.97329,-7.1200075 8.07625,-8.3626395 2.43306,-0.4954 9.42156,-2.062861 15.53,-3.483247 8.08487,-1.879963 14.47789,-2.65570301 23.5,-2.85153101 11.21926,-0.243517 12.79101,-0.05666 16.58582,1.97176001 2.30564,1.232423 5.32921,3.731645 6.71906,5.553827 8.19909,10.7495595 7.18333,21.4213605 -3.04549,31.9965455 -2.77104,2.864872 -5.36438,5.77283 -5.76298,6.462128 -1.03611,1.791728 6.28881,21.286033 9.06793,24.133095 1.28117,1.3125 2.32941,2.775 2.32941,3.25 0,0.475 0.7875,0.856861 1.75,0.84858 1.84956,-0.01591 8.86375,-2.265361 9.7135,-3.115115 0.27547,-0.275466 -0.39113,-3.619937 -1.48132,-7.432156 -3.97348,-13.894537 -2.50265,-15.437329 14.71816,-15.438251 5.93981,-3.18e-4 18.89966,-0.421002 28.79966,-0.934853 9.9,-0.51385 28.20701,-1.219076 40.68225,-1.567168 21.5745,-0.601985 22.777,-0.538148 24.62227,1.30712 1.84019,1.840186 1.86727,2.31965 0.52638,9.317746 -1.52199,7.943215 -2.72856,13.757275 -4.33267,20.877733 -0.55758,2.475 -1.25856,6.075 -1.55775,8 -0.29918,1.925 -0.93795,5.074996 -1.41947,6.999996 -0.48153,1.925 -1.38085,6.2 -1.9985,9.500004 -2.38781,12.75781 -3.35088,15.42592 -6.76171,18.73279 l -3.36992,3.26721 -17.19544,0.65 c -9.45749,0.3575 -24.92341,0.695 -34.36871,0.75 -23.53572,0.13705 -22.28728,1.25956 -29.36172,-26.400004 -2.25077,-8.8 -4.40116,-16.292802 -4.77866,-16.650676 -1.10019,-1.043009 -10.18635,1.482214 -10.18635,2.830987 0,0.674073 0.43147,2.259261 0.95882,3.52264 0.52735,1.263379 2.8114,7.697049 5.07568,14.297053 2.26427,6.6 6.35002,18.075 9.07945,25.5 2.72942,7.425 5.17569,14.11318 5.43615,14.86262 0.32833,0.94472 0.85331,1.05594 1.71173,0.36265 1.88792,-1.52473 18.47528,-6.84859 25.23817,-8.10041 14.40998,-2.66731 18.39695,-3.12486 27.22911,-3.12486 8.59587,0 9.56179,0.19999 11.80627,2.44447 1.61368,1.61368 2.2252,3.0581 1.79931,4.25 -1.37488,3.84772 -2.48751,4.30553 -10.46372,4.30553 -9.36562,0 -24.8202,2.21698 -33.87097,4.85883 -10.64916,3.1084 -18.4685,6.61981 -18.82135,8.45204 -0.41086,2.13341 1.7431,2.17191 6.60347,0.11806 15.75542,-6.65781 28.08195,-8.75959 47.95504,-8.17676 16.75025,0.49125 24.24994,1.96293 38.08187,7.47289 40.70115,16.21333 69.18097,58.56714 69.18097,102.88261 0,32.03812 -10.91239,58.29004 -33.59961,80.83052 -15.00638,14.90933 -35.99574,25.85139 -58.90039,30.70565 -9.74587,2.06547 -32.42914,1.58648 -42.5,-0.89746 -24.33413,-6.0019 -43.81521,-17.12248 -59.8222,-34.14891 -13.11855,-13.95404 -23.25697,-33.73617 -28.23765,-55.09747 -1.61172,-6.91239 -1.61184,-32.36149 -1.8e-4,-38.76309 4.36022,-17.31905 5.84054,-21.79988 10.15446,-30.73691 6.75716,-13.99862 18.56494,-28.25576 33.2916,-40.19749 2.59722,-2.10607 3.6855,-3.67373 3.28138,-4.72683 -0.93688,-2.44149 -2.0917,-1.96663 -8.86549,3.64545 -17.62359,14.60113 -30.77023,33.2461 -37.56714,53.27887 -3.68925,10.87347 -6.19199,25.59101 -6.21732,36.56144 -0.0143,6.21204 -0.38133,7.952 -2.05642,9.75 -2.3611,2.53435 -4.77424,2.77929 -7.51991,0.76329 -1.76151,-1.29338 -1.91969,-2.55254 -1.70939,-13.60747 0.37617,-19.77446 5.02822,-37.75862 14.49355,-56.02992 7.78189,-15.02168 23.54991,-33.19715 36.98757,-42.63481 l 7.71285,-5.41696 -1.92874,-4.89326 c -5.06058,-12.83878 -4.64745,-12.25018 -7.20638,-10.26728 -5.69442,4.41258 -16.96446,16.59022 -23.32649,25.20503 -6.31655,8.55321 -10.37557,15.1156 -23.54729,38.06994 -2.36702,4.125 -4.59039,7.725 -4.94081,8 -0.35043,0.275 -3.03617,4.1 -5.96832,8.5 -2.93215,4.4 -9.64589,12.28563 -14.91943,17.52363 -11.05016,10.97568 -15.78825,14.90992 -25.54602,21.21195 -3.96927,2.56354 -4.39684,3.27947 -3.18551,5.33382 0.65072,1.10358 1.13001,6.21431 1.11887,11.9306 -0.0167,8.54928 -0.36203,10.65282 -2.38062,14.5 -3.25046,6.19499 -7.68688,11.64586 -11.13737,13.68412 -4.50547,2.66144 -4.50241,3.67524 0.0447,14.81588 0.44897,1.1 1.068,2.7875 1.37561,3.75 0.43214,1.35216 1.67212,1.75 5.45431,1.75 3.95554,0 5.40101,0.50599 7.53139,2.63636 3.49121,3.49122 3.47979,7.55503 -0.029,10.31504 -2.49205,1.96024 -3.70758,2.07874 -18.69522,1.82258 l -16.02982,-0.27398 -1.88086,-3.22264 c -3.09319,-5.29984 0.56648,-11.27736 6.90443,-11.27736 h 3.25602 l -1.85656,-4.75 c -1.02111,-2.6125 -2.08062,-5.46864 -2.35448,-6.34698 -0.35336,-1.13336 -2.33853,-1.8023 -6.83802,-2.30422 -6.90194,-0.7699 -14.00661,-1.82633 -23.3401,-3.47054 -3.3,-0.58134 -9.09915,-1.52992 -12.88701,-2.10795 -3.78786,-0.57804 -7.83851,-1.28979 -9.00145,-1.58167 -1.83088,-0.45952 -2.7343,0.71598 -6.73651,8.76533 -21.47743,43.19594 -70.88966,69.12011 -116.87503,61.31859 z m 41,-19.47975 c 10.62583,-3.08117 26.36319,-11.04524 34.08802,-17.25063 3.62341,-2.9107 9.55899,-8.64788 13.19016,-12.74929 7.16862,-8.09695 15.25484,-21.21149 14.42003,-23.38696 -0.28625,-0.74596 -2.69795,-1.65839 -5.35934,-2.02761 -2.66138,-0.36923 -7.08887,-1.10952 -9.83887,-1.6451 -2.75,-0.53558 -7.925,-1.46002 -11.5,-2.0543 -9.19686,-1.52882 -16.7771,-2.86654 -22,-3.88245 -2.475,-0.48141 -7.2,-1.34132 -10.5,-1.91091 -3.3,-0.56959 -8.7,-1.55281 -12,-2.18493 -3.3,-0.63212 -7.35,-1.35119 -9,-1.59793 -5.14917,-0.77 -11.89342,-2.48882 -14.5,-3.69543 -6.38429,-2.95534 -10.99109,-10.19682 -10.99626,-17.28515 -0.008,-11.65174 7.14076,-19.37167 19.35266,-20.89745 5.78282,-0.72251 7.32916,-1.91934 15.1436,-11.72087 1.1,-1.37972 3.85148,-4.70125 6.11441,-7.38119 2.26292,-2.67993 7.63148,-9.14761 11.93013,-14.37261 4.29865,-5.225 9.87616,-11.975 12.39446,-15 7.75533,-9.31573 7.46684,-8.80606 5.991,-10.58434 -3.38483,-4.07848 -24.04062,-12.70506 -35.81738,-14.9586 -47.800295,-9.14683 -96.567312,24.24479 -107.782334,73.80042 -2.646616,11.69456 -2.194565,29.92491 1.04747,42.24252 9.387145,35.66499 36.674229,61.96928 72.622244,70.00663 9.76215,2.18264 33.17311,1.38568 43,-1.46382 z m 361.79216,1.36896 c 25.43799,-5.2416 50.18284,-22.68572 62.28976,-43.91177 7.31036,-12.81665 9.92298,-20.13534 12.49426,-35 2.35489,-13.61368 1.51634,-25.31002 -2.99889,-41.82971 -7.04869,-25.78879 -30.07854,-50.39104 -56.82605,-60.70598 -22.28687,-8.59473 -48.91598,-8.09812 -70.02304,1.30587 -5.86721,2.61406 -6.69005,3.29846 -6.1598,5.12345 2.56257,8.81974 9.39711,25.71737 13.59268,33.60637 10.11991,19.02861 23.31516,34.55455 31.53752,37.10802 11.42781,3.54893 12.43716,17.86041 1.58205,22.43159 -3.18546,1.34143 -4.38099,1.39578 -7.59404,0.34525 -4.59885,-1.50363 -8.67823,-6.05245 -8.70935,-9.71159 -0.0157,-1.84289 -1.75582,-4.537 -5.60217,-8.67327 -18.58805,-19.98917 -25.49423,-30.92654 -34.38263,-54.45203 -2.58754,-6.84861 -5.266,-12.63915 -5.95213,-12.86786 -1.72291,-0.5743 -15.70837,13.9117 -21.06595,21.81989 -5.13865,7.58504 -10.92219,20.56209 -13.59308,30.5 -2.89133,10.75814 -2.67399,34.09901 0.42305,45.43317 7.044,25.77878 23.20003,46.39742 46.58557,59.45343 6.29274,3.5132 22.65076,9.47172 28.82483,10.49965 8.94016,1.48845 27.23522,1.24446 35.57741,-0.47448 z M 305.83818,241.10905 c 8.20458,-5.56939 11.4141,-8.37368 22.69513,-19.82968 9.07702,-9.2178 16.00148,-19.03429 24.67541,-34.98123 2.75629,-5.06741 6.83588,-11.54083 19.21104,-30.48374 6.54595,-10.02001 12.52852,-16.42211 30.52358,-32.66404 l 4.05952,-3.66403 -2.86024,-8.60449 c -1.57313,-4.73247 -3.21358,-8.82287 -3.64545,-9.08978 -0.69685,-0.43067 -2.53292,1.78285 -8.70887,10.49922 -0.96525,1.36229 -6.27653,8.56229 -11.80286,16 -5.52632,7.43772 -13.54079,18.24812 -17.80991,24.02312 -4.26913,5.775 -8.41009,11.29264 -9.20213,12.26143 -0.79205,0.96879 -1.44009,2.00768 -1.44009,2.30864 0,2.4169 -17.21073,21.04091 -26.5,28.67608 -6.65233,5.46778 -23.3908,14.62194 -31,16.9537 -8.57654,2.62819 -21.30032,5.76675 -23.5,5.79672 -4.89396,0.0667 -5.11116,1.0043 -2.20921,9.53724 l 2.70921,7.96619 6.56969,0.72569 c 7.28599,0.80481 11.6927,2.40975 16.93031,6.16609 1.925,1.38058 3.86219,2.53221 4.30487,2.55918 0.44268,0.027 3.59268,-1.84337 7,-4.15631 z m -102.66479,-3.45692 9.14008,-0.61748 -0.75326,-2.61012 c -1.78432,-6.18286 -6.62818,-17.08839 -10.24328,-23.06185 -4.43672,-7.33108 -13.76717,-18.90077 -15.31403,-18.98931 -0.56673,-0.0324 -3.93422,3.42853 -7.48331,7.69103 -3.54909,4.2625 -6.70674,7.975 -7.017,8.25 -0.31026,0.275 -4.34989,5.225 -8.97695,11 -4.62707,5.775 -10.11338,12.3 -12.19181,14.5 -2.07843,2.2 -3.78381,4.40747 -3.78974,4.90548 -0.0107,0.89777 38.19916,0.17732 56.6293,-1.06775 z m 30.35228,-2.58773 c -0.009,-2.52575 -2.89464,-12.18132 -5.45495,-18.25 -5.92549,-14.0451 -12.55734,-24.44373 -21.65527,-33.95508 -5.42867,-5.67535 -6.98674,-6.80111 -8.01457,-5.79078 -1.0306,1.01306 -0.48722,2.07032 2.82672,5.5 11.01002,11.39453 20.85842,28.14969 25.71307,43.74586 1.45519,4.675 2.84472,9.0625 3.08784,9.75 0.77331,2.18682 3.50533,1.40561 3.49716,-1 z m 19.00764,-0.35445 c 0,-2.42051 -28.14751,-87.39555 -28.94929,-87.39555 -0.78677,0 -10.45877,10.83505 -14.01174,15.69664 l -2.33619,3.19665 7.16221,7.66922 c 13.43015,14.38087 23.63251,32.34776 28.67224,50.4933 1.44266,5.19431 2.79784,10.00669 3.01151,10.69419 0.59787,1.92371 6.45126,1.60212 6.45126,-0.35445 z"></path>
</svg>
