<svg xmlns="http://www.w3.org/2000/svg" xmlns:svg="http://www.w3.org/2000/svg"
   viewBox="21.72 8.12 603.22 366.87">
   <path style="fill:currentColor"
      d="m 121.5,373.47116 c -2.2,-0.79257 -5.76457,-1.44782 -7.92126,-1.4561 -2.26969,-0.009 -4.71289,-0.73148 -5.8008,-1.71603 -1.11821,-1.01196 -3.20827,-1.61148 -5.1598,-1.48005 -2.1372,0.14394 -4.57423,-0.6572 -6.993607,-2.29903 C 93.58219,365.13398 90.988133,364 89.859961,364 c -2.0526,0 -6.78009,-2.92013 -10.096451,-6.23649 C 78.79358,356.79358 77.275594,356 76.390209,356 c -0.885385,0 -4.071649,-2.25 -7.080587,-5 -3.008938,-2.75 -5.997032,-5.01239 -6.640209,-5.02753 C 62.026236,345.95733 60.375,344.39177 59,342.49345 c -1.375,-1.89832 -3.323986,-3.72784 -4.33108,-4.06559 -1.007094,-0.33776 -3.032094,-2.50377 -4.5,-4.81337 -1.467906,-2.30959 -4.141798,-5.75519 -5.941983,-7.65688 -1.800185,-1.90168 -3.561615,-4.5703 -3.914289,-5.93026 -0.352674,-1.35995 -2.141139,-4.95995 -3.974366,-8 -1.833227,-3.04004 -3.334297,-5.94192 -3.335711,-6.44861 -0.0014,-0.50669 -0.733359,-1.72877 -1.626545,-2.71573 -0.93908,-1.03767 -1.677123,-3.70417 -1.75,-6.32264 -0.06931,-2.49049 -0.426308,-4.53091 -0.793318,-4.53427 -1.324851,-0.0121 -4.021342,-8.8364 -3.348244,-10.95715 0.421963,-1.32949 0.0525,-3.10669 -0.970407,-4.66784 -0.90849,-1.38653 -1.597163,-3.727 -1.530384,-5.20104 0.283046,-6.24785 0.174421,-7.86884 -0.762492,-11.37852 -0.739922,-2.77175 -0.643965,-4.36024 0.382962,-6.33965 1.005945,-1.93896 1.090093,-3.16471 0.31649,-4.6102 -1.2338,-2.30537 -0.371901,-7.23229 1.543243,-8.82172 0.886485,-0.73572 1.158858,-2.42382 0.810335,-5.02225 -0.379981,-2.83297 0.0671,-5.04998 1.618697,-8.02677 1.179024,-2.26201 1.859731,-4.57218 1.512683,-5.13372 C 27.666505,220.65138 30.90641,213 32.151874,213 32.618343,213 33,212.15496 33,211.12212 c 0,-2.46105 2.66752,-8.7986 4.067608,-9.6639 0.603852,-0.3732 1.906434,-2.54148 2.894628,-4.81839 0.988194,-2.2769 2.975952,-5.23077 4.41724,-6.56414 C 45.820764,188.74231 47,187.12052 47,186.47171 47,185.13839 48.606977,183.41447 59.094495,173.49707 70.051851,163.13538 75.084293,159 76.736339,159 c 0.811719,0 3.180366,-1.35 5.263661,-3 2.339311,-1.85277 4.95661,-3 6.844214,-3 1.681023,0 3.416266,-0.62848 3.856096,-1.39662 1.456082,-2.54298 8.09124,-5.80432 10.35017,-5.08736 1.47436,0.46794 2.84278,-0.007 4.49487,-1.55863 1.93571,-1.8185 3.1384,-2.12902 6.49976,-1.67816 3.10219,0.41609 4.99768,0.0381 7.64703,-1.52509 3.08154,-1.81816 3.94303,-1.92624 6.88222,-0.86341 2.40539,0.8698 3.91855,0.91584 5.32695,0.16209 2.61062,-1.39716 8.40881,-1.3427 9.84397,0.0925 0.86038,0.86038 2.23153,0.84115 5.51186,-0.0773 3.93449,-1.10159 4.72281,-1.01238 7.96673,0.90158 2.31554,1.3662 3.83103,1.7506 4.24717,1.07729 1.04661,-1.69347 5.06065,-1.20308 7.80183,0.95313 1.60388,1.26161 4.05678,2 6.64396,2 3.18842,0 4.7968,0.66459 7.22553,2.98561 2.31133,2.20883 3.73388,2.83257 5.46774,2.3974 1.82632,-0.45838 3.21218,0.28911 6.27888,3.38662 2.47646,2.50133 5.25001,4.22146 7.48181,4.64015 2.31736,0.43474 4.2776,1.69205 5.65595,3.62778 1.1602,1.62934 2.70564,2.96244 3.43431,2.96244 0.72867,0 6.94945,-5.85526 13.82396,-13.01169 l 12.49909,-13.01169 -0.86819,-3.73831 C 236.4384,134.18224 236.03698,132.1625 236.02386,131.75 236.01074,131.3375 234.515,131 232.7,131 c -1.815,0 -3.84,-0.54 -4.5,-1.2 -2.07346,-2.07346 -1.37794,-6.08299 1.44578,-8.33454 l 2.64578,-2.10967 -4.07939,-14.4279 C 225.9685,96.992552 223.38074,87.575 222.46159,84 c -3.04314,-11.836173 -3.52807,-13 -5.4167,-13 -0.99,0 -2.31267,-0.617732 -2.93927,-1.372737 -0.6266,-0.755006 -3.81799,-1.675801 -7.09199,-2.046211 -3.27399,-0.37041 -6.21798,-1.102678 -6.54219,-1.627263 C 200.14723,65.429205 199.30863,65 198.6079,65 c -1.78067,0 -15.72834,-7.680539 -18.90572,-10.41078 -5.59288,-4.805823 -5.23522,-12.632904 0.69041,-15.10879 2.81907,-1.177879 5.10278,-1.160937 15.70311,0.116494 8.73955,1.053191 20.23352,1.424155 38.9043,1.255621 29.98581,-0.270669 33.44241,0.238797 37.47295,5.523107 4.84889,6.357213 2.79868,7.896496 -10.76736,8.084067 -9.83987,0.13605 -10.52811,0.295578 -19.20559,4.451646 -4.95,2.370797 -9.15716,4.455269 -9.34924,4.632161 -0.48124,0.443186 12.52539,44.084204 14.49355,48.630034 0.89145,2.05898 2.12238,3.46946 2.80065,3.20919 0.66558,-0.25541 2.37707,-0.0207 3.80333,0.52155 1.99172,0.75725 2.46388,1.48038 2.0357,3.11774 -0.30662,1.1725 -1.39595,2.65544 -2.42074,3.29543 -1.98146,1.23745 -2.41334,4.2652 -0.9403,6.59211 0.99122,1.56579 1.86735,1.30737 13.85209,-4.0858 3.45128,-1.55308 6.49368,-2.82378 6.7609,-2.82378 0.5607,0 9.12406,-3.7192 11.70049,-5.08171 0.95504,-0.50506 2.21428,-0.91829 2.79831,-0.91829 0.58403,0 2.92466,-0.9 5.2014,-2 2.27673,-1.1 4.5099,-2 4.96259,-2 0.45269,0 2.95566,-0.95288 5.56217,-2.11751 2.6065,-1.16464 6.6467,-2.96464 8.9782,-4 2.33151,-1.03537 4.82901,-1.88249 5.55,-1.88249 0.721,0 1.7384,-0.38233 2.2609,-0.84962 0.5225,-0.46729 2.975,-1.62923 5.45,-2.5821 2.475,-0.952863 6.075,-2.416417 8,-3.25234 4.552,-1.976687 6.1157,-2.603051 14.5,-5.808213 3.85,-1.471783 8.35,-3.26387 10,-3.982416 1.65,-0.718545 5.025,-2.067636 7.5,-2.997979 5.27535,-1.982983 10.7889,-4.320376 13.23643,-5.611399 C 380.19147,78.41217 381.4177,78 381.96139,78 c 0.54369,0 3.93606,-1.35 7.53861,-3 3.60255,-1.65 6.99492,-3 7.53861,-3 0.54369,0 1.76992,-0.420527 2.72496,-0.934504 0.95504,-0.513978 3.19893,-1.523828 4.98643,-2.244112 3.06358,-1.234487 3.25,-1.598721 3.25,-6.349888 0,-4.576554 -0.28537,-5.208852 -3.10168,-6.872488 -2.68947,-1.588712 -3.021,-2.235612 -2.49459,-4.867667 0.46898,-2.344871 0.15085,-3.355025 -1.39832,-4.440104 -2.76762,-1.938519 -2.50937,-4.695653 0.7852,-8.382916 2.38523,-2.669543 3.72891,-3.225271 9.25,-3.825676 5.87971,-0.639405 14.03565,-3.778985 15.35263,-5.909903 0.29091,-0.470711 -1.02855,-2.365416 -2.93215,-4.210457 -8.77675,-8.506762 0.38562,-20.8213286 10.20232,-13.712285 1.70883,1.2375 6.33668,4.95 10.28412,8.25 3.94743,3.3 9.68762,8.025 12.75598,10.5 7.42393,5.988298 8.08649,7.145368 5.95462,10.399009 -2.17488,3.319283 -3.84636,3.272024 -9.60546,-0.271581 l -4.66852,-2.872572 -11.94208,6.288672 c -13.54883,7.134789 -14.72337,8.779934 -9.60558,13.454306 2.31593,2.115284 3.93247,5.596538 7.02332,15.124941 6.16675,19.010708 10.81791,31.783975 12.16431,33.406285 0.67142,0.80902 2.31556,1.47094 3.65365,1.47094 1.98755,0 2.91843,1.05252 5.08549,5.75 1.45894,3.1625 2.95834,8 3.33199,10.75 0.7369,5.42339 7.74076,25.5 8.89585,25.5 0.38969,0 0.49223,-3.37044 0.22786,-7.48986 C 466.65935,131.79029 467.58752,130 472.6679,130 c 4.49984,0 7.89039,3.42609 8.81675,8.90917 0.84112,4.97852 2.67666,6.01747 6.56901,3.7182 1.79262,-1.05892 4.77725,-1.62685 8.13853,-1.54864 2.9193,0.0679 6.80692,-0.20344 8.63917,-0.60305 2.10981,-0.46014 4.19981,-0.26177 5.6998,0.54099 1.89307,1.01315 2.96885,1.01886 5.35983,0.0285 2.32356,-0.96245 3.7859,-0.97686 6.5502,-0.0646 1.95735,0.64598 3.55881,1.56841 3.55881,2.04985 0,0.48143 2.18162,0.61695 4.84804,0.30115 4.00513,-0.47435 5.17873,-0.2285 6.75,1.41399 1.17888,1.2323 3.74738,2.18663 6.75604,2.51019 2.66975,0.28711 6.13903,1.47202 7.70951,2.63312 1.57048,1.16111 3.59988,2.11111 4.50976,2.11111 1.9614,0 9.42665,4.04406 9.42665,5.10659 0,0.40607 1.55697,1.25215 3.45994,1.88019 1.90296,0.62803 4.92475,2.91293 6.71507,5.07755 1.79033,2.16462 3.67838,3.93567 4.19567,3.93567 1.55139,0 7.62823,5.00941 7.64352,6.30089 0.008,0.65951 2.23541,2.99911 4.95023,5.19911 2.71482,2.2 4.95843,4.60595 4.9858,5.34655 0.0274,0.7406 1.84977,3.39146 4.04977,5.89079 2.2,2.49933 4,5.35537 4,6.34675 0,0.99137 0.82859,2.39052 1.8413,3.10921 2.55493,1.81314 4.1587,5.1368 4.1587,8.61851 0,1.61882 0.70467,3.52813 1.56594,4.24291 2.55748,2.12253 4.63808,6.99628 4.02665,9.43238 -0.37357,1.48844 0.18515,3.23191 1.62046,5.05662 1.38014,1.75456 2.22641,4.29654 2.28735,6.8706 0.0532,2.24712 0.63738,5.35247 1.29817,6.90078 1.47342,3.45241 1.54565,6.94068 0.17216,8.31417 -0.7057,0.7057 -0.55045,1.94747 0.49384,3.95 1.95939,3.75734 1.93518,6.40499 -0.0849,9.28909 -1.34735,1.92362 -1.41007,2.70628 -0.37225,4.64546 1.41613,2.64607 0.64618,7.08787 -1.67524,9.66429 -1.07527,1.19339 -1.23284,2.17694 -0.54552,3.40512 1.07632,1.92328 -0.3168,8.48215 -2.03002,9.5574 -0.5614,0.35235 -1.39457,3.00553 -1.85149,5.89597 -0.46756,2.95777 -1.72138,6.20336 -2.86794,7.42382 -1.12046,1.19266 -2.03719,2.94933 -2.03719,3.90369 0,2.38342 -2.36603,6.75218 -4.89762,9.04324 -1.15631,1.04644 -2.10238,2.70551 -2.10238,3.68682 0,0.9813 -1.8109,3.94906 -4.02423,6.59501 -2.21333,2.64595 -6.37583,7.63708 -9.25,11.0914 -2.87417,3.45432 -7.09733,7.41058 -9.38478,8.7917 -2.28746,1.38112 -4.40985,3.16478 -4.71642,3.9637 -0.76854,2.00278 -6.65419,5.45574 -9.30718,5.46028 -1.28466,0.002 -2.43762,0.8072 -2.80245,1.95666 -0.70576,2.22365 -5.74813,5.04708 -9.01359,5.04708 -1.20526,0 -2.98278,0.87449 -3.95005,1.94332 -1.8984,2.0977 -6.68488,3.56813 -10.3013,3.16461 -1.2375,-0.13808 -2.25,0.18228 -2.25,0.71192 0,1.44697 -7.93857,4.33442 -10.06299,3.66016 -1.01891,-0.32339 -3.88851,0.10323 -6.37689,0.94806 -3.40164,1.15489 -5.20162,1.27853 -7.25385,0.49827 -1.95794,-0.7444 -3.34777,-0.70691 -4.9165,0.13265 -1.31554,0.70406 -3.9208,0.92222 -6.53836,0.5475 -2.39328,-0.3426 -5.25141,-0.59379 -6.35141,-0.55818 -7.33049,0.23727 -9.72961,0.006 -11.01632,-1.06186 -0.80174,-0.66538 -2.53521,-0.93935 -3.85216,-0.60882 -2.46774,0.61937 -8.0886,-0.84816 -10.4963,-2.74043 -0.75063,-0.58994 -2.10063,-1.12267 -3,-1.18386 -0.89937,-0.0612 -2.61319,-0.18821 -3.80849,-0.28229 -1.19531,-0.0941 -3.54859,-1.3283 -5.22953,-2.74272 -1.68094,-1.41442 -3.52893,-2.27954 -4.10663,-1.9225 -1.32777,0.82061 -9.55878,-3.93822 -10.34202,-5.97932 C 446.32637,356.68693 445.12255,356 443.9734,356 c -1.14915,0 -4.02095,-1.95932 -6.38177,-4.35404 -2.36082,-2.39472 -5.42176,-4.63749 -6.8021,-4.98394 -1.38034,-0.34644 -3.52625,-2.09962 -4.76869,-3.89596 -1.24244,-1.79633 -3.6679,-4.1684 -5.38991,-5.27127 -1.72201,-1.10286 -3.81746,-3.3758 -4.65656,-5.05097 -0.83909,-1.67518 -2.58241,-4.14783 -3.87405,-5.4948 -1.29163,-1.34696 -3.21366,-4.36152 -4.27117,-6.69902 -1.0575,-2.3375 -2.26834,-4.25 -2.69073,-4.25 C 404.16126,316 401,309.43012 401,307.39935 c 0,-0.84304 -1.18125,-3.08149 -2.625,-4.97435 -1.44375,-1.89285 -2.60117,-4.67533 -2.57204,-6.18327 0.0291,-1.50795 -0.81463,-4.64933 -1.875,-6.98083 C 392.86758,286.92939 392,283.24345 392,281.06992 c 0,-2.17354 -0.5069,-4.26517 -1.12645,-4.64807 -0.72835,-0.45015 -0.94166,-2.73409 -0.60357,-6.46259 0.29698,-3.27516 0.0889,-6.20035 -0.48156,-6.77084 -0.57465,-0.57465 -0.74583,-3.07629 -0.40005,-5.84643 0.63075,-5.05319 0.71295,-6.67844 0.61362,-12.1316 -0.0329,-1.80928 0.58091,-4.20451 1.36414,-5.32272 0.92968,-1.32731 1.23817,-3.41891 0.88863,-6.02495 -0.40999,-3.05674 -0.0484,-4.65055 1.54358,-6.80383 1.18656,-1.6049 1.85768,-3.65828 1.56342,-4.78351 C 394.75184,219.94304 397.43703,213 398.94897,213 399.52704,213 400,211.85265 400,210.45034 c 0,-3.30199 2.50855,-8.11696 4.89398,-9.3936 1.0303,-0.5514 2.15532,-2.506 2.50005,-4.34356 0.36087,-1.92361 2.10721,-4.77591 4.11637,-6.72326 1.91928,-1.86024 3.4896,-3.91167 3.4896,-4.55873 0,-0.64706 2.1375,-3.13108 4.75,-5.52006 2.6125,-2.38897 5.46408,-5.48378 6.33685,-6.87736 0.87277,-1.39357 2.89777,-3.1975 4.5,-4.00873 1.60223,-0.81123 4.14057,-2.89676 5.64076,-4.63451 1.5975,-1.85048 4.09646,-3.41634 6.03145,-3.77935 1.81711,-0.34089 4.07279,-1.51787 5.0126,-2.61549 C 448.21148,156.89806 449.65983,156 450.49021,156 451.3206,156 452,155.53847 452,154.97438 c 0,-2.2354 -9.00394,-24.3151 -10.53893,-25.84383 -0.90047,-0.8968 -2.62226,-3.42673 -3.8262,-5.62207 -1.21148,-2.20908 -3.07001,-4.12432 -4.16193,-4.28893 -5.78768,-0.87249 -6.30659,-1.27954 -8.55906,-6.71403 C 423.65883,109.47748 422.01019,107 421.25024,107 c -4.57282,0 -11.84997,7.48238 -22.48888,23.12309 -4.25626,6.2573 -11.23126,16.40171 -15.5,22.54314 -4.26875,6.14143 -11.55534,16.71643 -16.19243,23.5 -4.63708,6.78357 -8.72622,12.55877 -9.08697,12.83377 -0.36075,0.275 -3.95263,5.45 -7.98196,11.5 -4.02933,6.05 -7.59091,11.225 -7.91462,11.5 -0.32371,0.275 -1.22233,1.7299 -1.99692,3.23312 -0.77459,1.50322 -2.23638,3.6219 -3.24841,4.70819 -1.01203,1.08628 -1.84005,2.40638 -1.84005,2.93354 0,0.52717 -0.37529,1.10848 -0.83398,1.29182 -0.45869,0.18333 -4.13658,5.28333 -8.17309,11.33333 -4.03651,6.05 -8.60604,12.58734 -10.15452,14.52742 l -2.81541,3.52743 2.08135,5.47257 c 1.62353,4.26885 1.99805,7.12226 1.70267,12.97258 -0.45805,9.07199 -2.48643,13.63943 -9.09927,20.48938 -3.40492,3.52702 -4.69696,5.6028 -4.36361,7.01062 0.26046,1.1 1.34079,4.925 2.40074,8.5 l 1.92717,6.5 4.84705,0.31227 c 6.54282,0.42151 10.4809,3.27019 10.4809,7.58151 0,2.11215 -0.81381,4.02213 -2.31445,5.43191 C 318.5088,329.87064 317.42138,330 302.40806,330 283.46647,330 282,329.46526 282,322.55831 c 0,-3.49688 0.47346,-4.63851 2.46482,-5.9433 1.35565,-0.88826 3.65672,-1.61501 5.1135,-1.61501 2.35486,0 2.58825,-0.30506 2.10394,-2.75 -1.45849,-7.36286 -2.3909,-9.739 -3.74724,-9.54935 -0.78926,0.11036 -5.03502,0.91324 -9.43502,1.78417 -4.4,0.87094 -10.475,2.0547 -13.5,2.63058 -5.31269,1.01139 -7.55004,1.48046 -18.67191,3.91466 -5.1331,1.12346 -5.19257,1.18057 -7.92483,7.60933 -1.51411,3.56256 -3.61235,6.93733 -4.66275,7.49948 -1.0504,0.56216 -2.50773,2.4531 -3.2385,4.20209 -0.73078,1.74898 -2.42298,4.30026 -3.76046,5.66951 C 221.10277,341.78316 214.01318,348 213.06886,348 c -0.55892,0 -3.04123,2.025 -5.51623,4.5 -2.8533,2.8533 -5.38531,4.5 -6.91933,4.5 -1.33063,0 -2.66828,0.64878 -2.97257,1.44173 -0.75295,1.96217 -4.97678,4.62148 -7.82544,4.92689 -1.28441,0.1377 -4.40408,1.46359 -6.9326,2.94641 -3.49053,2.04699 -5.3563,2.54425 -7.75,2.06551 C 173.04553,367.95911 172,368.14001 172,368.92603 c 0,2.02135 -6.57088,4.18762 -9.41835,3.10501 -1.84455,-0.70129 -2.88419,-0.58565 -3.90413,0.4343 -2.02842,2.02842 -7.75642,2.83536 -11.10077,1.56384 -2.00428,-0.76203 -3.22338,-0.78255 -3.93959,-0.0663 -1.43835,1.43835 -8.97119,1.30313 -10.46212,-0.1878 -0.96661,-0.96661 -1.63864,-0.96661 -3.18643,0 -2.45058,1.53041 -3.50151,1.49279 -8.48861,-0.30388 z m 31,-27.94091 c 15.52809,-2.52195 29.43787,-8.57831 40.99146,-17.84779 7.08668,-5.68568 9.05273,-8.34932 5.39321,-7.30684 -3.52706,1.00474 -41.33363,8.19862 -50.1568,9.54389 C 138.77625,331.43684 133,328.10598 133,320.85007 c 0,-4.85863 1.00348,-6.6623 8.5,-15.2781 1.45903,-1.67687 3.5,-5.40962 3.5,-6.40118 0,-0.471 -2.0051,-1.88762 -4.45578,-3.14805 -2.45068,-1.26043 -5.35686,-3.13118 -6.45819,-4.15721 C 132.98471,290.83949 131.69933,290 131.22964,290 c -0.46969,0 -2.71677,-0.9 -4.9935,-2 -2.27674,-1.1 -5.20782,-2 -6.51352,-2 -1.3057,0 -3.40723,-1.09984 -4.67009,-2.44408 -1.83298,-1.95113 -2.16782,-3.12782 -1.66013,-5.83407 0.38637,-2.05952 0.0417,-5.07434 -0.87822,-7.68165 -1.78823,-5.06841 -1.9741,-14.77309 -0.38454,-20.07857 1.81844,-6.06942 7.73182,-12.94226 13.87036,-16.12085 4.97092,-2.57399 6.39301,-2.83531 14.78328,-2.71653 l 9.28329,0.13143 7.10139,-7.37784 c 3.90576,-4.05781 13.37091,-13.84176 21.03367,-21.74212 l 13.93229,-14.36427 -2.20315,-2.34515 C 186.84136,182.13778 174.07373,175.72425 164,172.40057 c -7.81735,-2.57921 -9.74484,-2.80658 -24,-2.83101 -18.07329,-0.031 -23.28324,1.06935 -37.94735,8.01438 -10.810948,5.12014 -22.177581,13.3786 -27.888551,20.2625 C 58.217878,217.06773 51.555913,235.20112 51.697101,259 c 0.25459,42.91428 30.745336,78.73606 73.644469,86.52053 9.6401,1.74929 16.4326,1.75172 27.15843,0.01 z m 367,0.0191 c 11.66906,-1.83434 17.26379,-3.60767 26.77985,-8.48827 29.49351,-15.12662 48.7228,-45.80978 48.71897,-77.73827 -10e-4,-8.58869 -0.60603,-13.12608 -3.57648,-26.82281 -1.18551,-5.4664 -9.04487,-20.90258 -13.91446,-27.32873 -10.22904,-13.49872 -19.75484,-21.19364 -34.81317,-28.12195 -11.09908,-5.10668 -19.19429,-7.0748 -31.89757,-7.75499 C 496.37685,168.52219 480,171.5497 480,174.98764 c 0,0.91908 2.4018,8.16035 5.33734,16.09171 2.93553,7.93136 6.5983,18.02065 8.13949,22.42065 1.54119,4.4 3.22399,8.27294 3.73955,8.60653 0.51556,0.33359 3.04028,0.19865 5.6105,-0.29988 11.04006,-2.14137 25.42633,3.82981 33.17312,13.76887 6.07702,7.79675 9.62559,22.04871 7.12789,28.62743 -0.47966,1.26338 -1.43381,4.09705 -2.12034,6.29705 -1.78852,5.73138 -8.36196,13.88513 -14.35304,17.80364 -6.80125,4.4484 -12.91872,6.00296 -21.84199,5.55043 -13.20756,-0.6698 -24.53667,-8.45444 -30.79013,-21.15702 -2.63386,-5.35014 -3.07658,-7.37535 -3.10806,-14.21792 -0.0409,-8.88796 1.51093,-14.35001 6.11578,-21.52605 l 2.97253,-4.63229 -1.88304,-5.4104 C 477.08392,223.93468 475.08767,218.575 473.68349,215 c -1.40419,-3.575 -4.17856,-11 -6.16526,-16.5 -5.37186,-14.87149 -5.65553,-15.5 -6.99575,-15.5 -3.16123,0 -16.55201,11.6785 -22.93237,20 -19.09304,24.90185 -24.14197,52.8682 -14.87926,82.41722 11.13445,35.52005 44.68667,60.4099 82.78915,61.41501 2.75,0.0725 9.05,-0.50475 14,-1.28288 z M 163.50037,319.48514 c 3.8498,-0.83317 11.72463,-2.40372 17.49963,-3.49011 5.775,-1.08639 12.525,-2.4443 15,-3.01758 2.475,-0.57329 6.42271,-1.31241 8.77269,-1.6425 4.65137,-0.65336 7.18572,-2.99509 11.844,-10.94385 C 219.92919,294.73875 225,280.60792 225,277.02934 v -2.74211 l -10.25,-0.66189 c -5.6375,-0.36403 -14.525,-1.11013 -19.75,-1.65799 -5.225,-0.54785 -14.28946,-1.27046 -20.14324,-1.60578 -10.4695,-0.59972 -10.65515,-0.57216 -11.37258,1.68826 -0.40113,1.26387 -2.71747,4.42342 -5.14742,7.02124 l -4.41809,4.72329 2.04066,3.63324 c 2.13971,3.80956 2.66014,9.39168 1.15011,12.33597 -0.70956,1.38351 -4.55013,9.59996 -5.75313,12.30813 -0.13967,0.31444 0.39802,1.82837 1.19487,3.36431 0.79685,1.53593 1.44882,3.41617 1.44882,4.1783 0,1.74513 0.89622,1.73294 9.50037,-0.12917 z M 257,300.84387 c 2.475,-0.48162 6.4125,-1.15204 8.75,-1.48982 2.63292,-0.38048 4.25,-1.1354 4.25,-1.9841 C 270,296.61648 269.631,296 269.18,296 c -2.17883,0 -9.35238,-7.65298 -11.73133,-12.51538 -2.88806,-5.90299 -4.63464,-6.31569 -4.27736,-1.01069 0.1231,1.82788 -0.47627,5.05652 -1.33194,7.17475 -0.85566,2.11823 -2.01421,5.20132 -2.57455,6.85132 -0.56034,1.65 -1.37314,3.85485 -1.80623,4.89968 -0.70417,1.69879 -0.47925,1.81614 2.12699,1.10976 1.60293,-0.43445 4.93942,-1.18396 7.41442,-1.66557 z m 260.2609,-19.84091 c 7.54061,-3.55238 12.39904,-9.09876 14.55764,-16.61898 2.09069,-7.28363 1.6628,-10.13733 -2.98471,-19.90566 -2.17095,-4.56299 -9.0213,-9.66545 -15.48737,-11.53571 -4.30269,-1.24453 -10.80874,-0.62168 -11.89685,1.13892 -0.3413,0.55224 0.43042,3.11712 1.71492,5.69975 1.81355,3.64631 3.0059,4.82706 5.33547,5.28356 4.58838,0.89911 7.41587,2.74931 9.54977,6.24898 2.518,4.1296 2.46396,7.9998 -0.1773,12.6993 -2.68868,4.78386 -5.82903,6.46726 -11.59634,6.21626 -3.83393,-0.16686 -5.12853,-0.79526 -8.16618,-3.96384 -1.98547,-2.07105 -4.74395,-4.4956 -6.12996,-5.3879 -1.66367,-1.07105 -3.33045,-3.91803 -4.90496,-8.37804 l -2.38496,-6.75569 -1.53203,2.87805 c -0.91993,1.72816 -1.53958,5.49933 -1.55092,9.43887 -0.0208,7.21426 2.48763,12.84809 8.09114,18.17265 7.17838,6.82102 18.90172,8.84964 27.56264,4.76948 z M 226.7999,253.25 226.5,247.5 l -9,-0.64411 c -4.95,-0.35426 -18.5625,-0.69176 -30.25,-0.75 L 166,246 v 2.87756 c 0,1.58265 0.66931,3.43302 1.48735,4.11194 0.87996,0.7303 6.90335,1.57733 14.75,2.07417 26.32596,1.66696 41.02865,2.869 41.55722,3.39757 0.29632,0.29632 1.16122,0.53876 1.922,0.53876 1.05205,0 1.31143,-1.37673 1.08333,-5.75 z m 35.15929,-2.91439 C 264.08648,247.88484 263.67688,247 260.41512,247 c -3.25222,0 -5.34257,0.988 -4.9355,2.33276 0.19433,0.64198 0.65259,2.5167 1.01835,4.16603 0.64388,2.90349 0.71138,2.93527 2.12377,1 0.80231,-1.09933 2.30416,-2.97276 3.33745,-4.16318 z M 299.75,233.48889 c 2.3375,-3.55822 4.25,-6.84596 4.25,-7.30609 0,-0.71983 -13.16102,-11.90552 -16.42887,-13.96308 C 284.90956,210.5439 282,205.50222 282,202.56607 c 0,-1.77931 1.20361,-4.98028 2.75,-7.31353 2.82176,-4.2576 20.50897,-27.75931 27.71633,-36.82782 2.21852,-2.7914 5.01108,-6.3914 6.20568,-8 15.70727,-21.15062 15.43087,-20.93507 28.82799,-22.48171 3.85,-0.44447 8.46282,-1.11459 10.25071,-1.48917 3.1304,-0.65584 6.8369,0.57038 11.45133,3.78844 0.93612,0.65284 1.88543,0.9779 2.10957,0.72235 0.22415,-0.25555 5.49217,-8.11463 11.70672,-17.46463 6.21455,-9.35 11.67774,-17.15 12.14043,-17.333333 C 395.62144,95.983333 396,95.220772 396,94.472086 c 0,-1.339223 -0.66278,-1.151825 -12.5,3.53431 -1.1,0.43547 -3.575,1.339937 -5.5,2.009924 -1.925,0.67 -4.85,1.80346 -6.5,2.51882 -1.65,0.71536 -5.025,2.05446 -7.5,2.97577 -2.475,0.92131 -5.4,2.04192 -6.5,2.49024 -1.1,0.44833 -10.1,3.96352 -20,7.81154 -50.35837,19.57373 -77.79809,30.80055 -78.26701,32.02253 -0.47341,1.23369 2.78167,13.36034 9.30484,34.66478 1.34723,4.4 4.03225,13.4 5.96672,20 11.38793,38.85329 10.6024,37.17571 17.49545,37.36319 3.23674,0.088 3.81967,-0.39142 7.75,-6.3743 z M 225,238.10534 c 0,-2.31565 -4.54669,-15.23492 -7.25165,-20.60534 -3.64576,-7.23827 -9.69294,-16.27049 -12.70379,-18.97469 l -2.19861,-1.9747 -7.0115,7.4747 c -3.85633,4.11108 -12.59666,13.18164 -19.42297,20.15681 C 169.58516,231.15728 164,237.34478 164,237.93212 164,238.66595 173.54082,239 194.5,239 c 17.27268,0 30.5,-0.388 30.5,-0.89466 z m 42,0.34925 c 0,-0.29997 -2.21531,-7.83747 -4.92291,-16.75 -2.7076,-8.91252 -7.41943,-24.97959 -10.47074,-35.70459 -3.05131,-10.725 -6.28287,-21.96163 -7.18125,-24.97029 l -1.63342,-5.47029 -9.84257,10.39403 -9.84257,10.39403 3.93159,5.07626 c 2.16238,2.79194 4.42107,5.52626 5.01931,6.07626 4.29266,3.94652 5.82851,5.90946 6.39751,8.17651 0.35847,1.42826 1.71771,3.99783 3.02055,5.71016 1.30283,1.71233 2.69828,4.43319 3.10099,6.04636 0.40271,1.61317 1.78775,4.48847 3.07786,6.38955 1.42261,2.09634 2.34565,4.92257 2.34565,7.18211 0,2.25699 0.81843,4.76606 2.07622,6.36508 1.27336,1.61881 2.00757,3.89445 1.89868,5.88486 C 253.65685,239.06869 253.57884,239 260.5,239 c 3.575,0 6.5,-0.24543 6.5,-0.54541 z M 327.87833,180 l 6.11405,-8 h -4.02757 c -4.92453,0 -5.55607,-1.27053 -3.52738,-7.09633 2.55908,-7.34894 1.9616,-7.25989 -3.93743,0.58685 -3.2865,4.37161 -5.5,8.24476 -5.5,9.62379 0,0.48713 1.32344,0.88569 2.94098,0.88569 1.61754,0 3.16492,0.36234 3.43863,0.8052 0.50946,0.82433 -0.5773,6.30932 -1.87135,9.4448 -1.38007,3.34393 0.29056,1.70479 6.37007,-6.25 z">
   </path>
</svg>
